<svg id="Layer_1" data-name="Layer 1" xmlns="http://www.w3.org/2000/svg" xmlns:xlink="http://www.w3.org/1999/xlink" viewBox="0 0 32 32"><defs><style>.cls-1{fill:#622c84;}.cls-2{fill:url(#linear-gradient);}.cls-3{fill:url(#linear-gradient-2);}.cls-4{fill:#e2cbac;}</style><linearGradient id="linear-gradient" x1="11.28" y1="12.98" x2="20.73" y2="12.98" gradientUnits="userSpaceOnUse"><stop offset="0" stop-color="#876226"/><stop offset="0.01" stop-color="#8a6628"/><stop offset="0.21" stop-color="#b69542"/><stop offset="0.38" stop-color="#d5b754"/><stop offset="0.52" stop-color="#e8cc60"/><stop offset="0.62" stop-color="#efd464"/><stop offset="0.64" stop-color="#f2da6c"/><stop offset="0.7" stop-color="#f8e881"/><stop offset="0.76" stop-color="#fcf08e"/><stop offset="0.82" stop-color="#fdf392"/><stop offset="0.86" stop-color="#fbf08d"/><stop offset="0.91" stop-color="#f7e680"/><stop offset="0.96" stop-color="#f0d76a"/><stop offset="1" stop-color="#e8c753"/></linearGradient><linearGradient id="linear-gradient-2" x1="11.27" y1="8.02" x2="20.67" y2="8.02" xlink:href="#linear-gradient"/></defs><rect class="cls-1" width="32" height="32"/><path class="cls-2" d="M20.73,11.82c0-.05,0-.1,0-.16a.09.09,0,0,1,0-.07s0-.05,0-.07a.06.06,0,0,0,0-.07,1.52,1.52,0,0,0,0-.21c0-.05,0-.11,0-.16s-.07-.21-.12-.32a1.82,1.82,0,0,0-.15-.27l-.13-.2a2.11,2.11,0,0,0-.19-.23,2.83,2.83,0,0,0-.25-.24l-.07-.06-.07,0a.91.91,0,0,0-.16-.11l-.16-.09-.2-.09-.07,0-.08,0-.06,0-.2-.05h-.06l-.12,0s-.05,0-.06,0h-.3a.31.31,0,0,0-.19,0,.81.81,0,0,0-.22,0s-.07,0-.1,0-.05,0-.07,0,0,0-.06,0l-.07,0-.19.05-.21.08a3.41,3.41,0,0,0-.33.17l-.2.13-.24.2-1.14,1.14a.18.18,0,0,0-.05.08.15.15,0,0,0,0,.17.41.41,0,0,0,.12.11.44.44,0,0,0,.15.05h.11a.17.17,0,0,0,.1,0,.68.68,0,0,0,.2-.07.74.74,0,0,0,.25-.17l.69-.69,0,0,.1-.05c.05,0,.1,0,.14,0a.18.18,0,0,1,.08.21s0,0,0,0l-.07.09-1,1c-.34.34-.67.69-1,1a1.29,1.29,0,0,1-.16.17s-.09.07-.11.12l-.23.23h0l-.24-.24.85-.86c.13-.15.28-.29.42-.43l0,0h-.05l-.14,0a1,1,0,0,1-.21-.09l-.16-.12a.7.7,0,0,1-.13-.16.57.57,0,0,1-.07-.22V11.1a.54.54,0,0,1,.05-.21,1,1,0,0,1,.15-.2c.12-.12.23-.24.36-.35s.23-.25.36-.35l.08-.08s0,0,0,0-.11-.09-.16-.14l-.06-.05-.25-.15-.29-.15s-.05,0-.08,0l-.23-.08-.14,0H14.3a.07.07,0,0,0-.06,0h-.07a.68.68,0,0,1-.14,0,1.18,1.18,0,0,0-.26,0,1.28,1.28,0,0,0-.19,0,.37.37,0,0,1-.11,0s-.05,0-.06,0-.05,0-.07,0l-.06,0-.2.05-.1,0-.19.08-.17.09-.15.09-.14.1-.21.17-.19.21a1.39,1.39,0,0,0-.15.19l-.09.13-.07.12a1.62,1.62,0,0,0-.1.18l-.08.21a2.17,2.17,0,0,0-.07.24.58.58,0,0,0,0,.19s0,0,0,.06,0,.05,0,.07,0,0,0,.07a.49.49,0,0,1,0,.12v.15s0,.09,0,.14a.14.14,0,0,1,0,.09s0,.06,0,.09,0,.08,0,.12,0,0,0,.06,0,.05,0,.07,0,0,0,.06a.75.75,0,0,0,0,.16.78.78,0,0,0,.05.14.69.69,0,0,0,0,.13,2.44,2.44,0,0,0,.14.28l.14.19a1.3,1.3,0,0,0,.18.23c.23.24.47.47.7.7s.48.47.7.72l1.51,1.5.06.06c.05,0,.1.06.16.05h0a0,0,0,0,0,0,0h0a.28.28,0,0,0,.12,0,.24.24,0,0,0,.11-.09.39.39,0,0,0,.08-.21.38.38,0,0,0,0-.1.4.4,0,0,0-.08-.16l-.61-.62L13.45,14a.21.21,0,0,1,0-.24.12.12,0,0,1,.06-.06.2.2,0,0,1,.15,0l.1.07,2,2,0,0a.34.34,0,0,0,.11.07.37.37,0,0,0,.21,0,.32.32,0,0,0,.19-.1l2-2,0,0a.26.26,0,0,1,.12,0,.22.22,0,0,1,.15.06.23.23,0,0,1,.06.12.16.16,0,0,1-.06.14l-2,2a.76.76,0,0,0-.11.14.2.2,0,0,0,0,.13v.1a.45.45,0,0,0,0,.11.31.31,0,0,0,.1.13.39.39,0,0,0,.21.08.17.17,0,0,0,.1,0,.4.4,0,0,0,.17-.09l2.4-2.4c.26-.26.53-.5.76-.78l.06-.09.11-.15.09-.16a2,2,0,0,0,.1-.21.58.58,0,0,0,.05-.14l.06-.17,0-.1s0-.1,0-.15,0,0,0-.06,0-.05,0-.07,0,0,0-.07a.49.49,0,0,1,0-.12Zm-5.79,2.11,0,0,1.72-1.72.07,0a0,0,0,0,1,.05,0h.05a.12.12,0,0,1,.11,0l0,.05a.18.18,0,0,1,0,.2l-.05.06L15.21,14.2Zm2.84-.7,0,0L16,15l-.27-.27,0,0L17.51,13a.17.17,0,0,1,.25,0s0,0,.06.09A.19.19,0,0,1,17.78,13.23Z"/><path class="cls-3" d="M11.49,9.18a.2.2,0,0,0,.11,0h.11l.19-.08.14,0L12.17,9l.13,0,.19-.07.14-.06.3-.12.13-.05.21-.05.15,0,.12,0,.26-.05.07,0a.9.9,0,0,1,.16,0l.11,0a.36.36,0,0,0,.14,0h.16s0,0,.06,0,.11,0,.16,0h0a.06.06,0,0,1,.07,0l.08,0h.61a1,1,0,0,1,.17,0h.66a1,1,0,0,1,.17,0,.69.69,0,0,1,.2,0,2.44,2.44,0,0,1,.27,0H17s.05,0,.07,0l.08,0a.92.92,0,0,1,.16,0h.07s.05,0,.08,0,.08,0,.12,0,.05,0,.08,0h.09s0,0,.06,0,0,0,.06,0,0,0,.05,0l.13,0,.2,0,.12,0,.17,0,.12,0,.13,0,.24.08.17.06.22.08L19.6,9s0,0,.07,0h0l.16.05.25.1c.18.07.15,0,.25,0a.19.19,0,0,0,.13,0,.32.32,0,0,0,.12-.11.26.26,0,0,0,.07-.19v0a.17.17,0,0,0,0-.1c-.05-.1-.07-.13-.15-.17l-.16-.07-.15-.05L20,8.34l-.21-.07-.12,0-.14-.05-.17-.06-.16-.06L19,8l-.17-.06-.23-.09-.34-.12L18,7.62l-.19-.07-.19-.08-.11,0-.18-.06-.24-.09-.17-.06-.17-.07c-.06,0-.13,0-.18-.07S16.39,7,16.29,7l-.16-.07L16,6.86a.26.26,0,0,0-.15,0,.6.6,0,0,0-.19.06l-.13,0L15.3,7l-.14,0L15,7.17l-.2.07c-.11,0-.21.1-.32.13a1,1,0,0,1-.16.06l-.17.07L14,7.56a1.15,1.15,0,0,1-.17.06c-.1.06-.21.08-.31.13a.94.94,0,0,1-.15.06.76.76,0,0,1-.16.06V7.12H12.12V8.23s0,.06,0,.07l-.07,0-.24.09-.19.08a.55.55,0,0,0-.21.12.34.34,0,0,0-.09.19.35.35,0,0,0,.1.29A.42.42,0,0,0,11.49,9.18Z"/><path class="cls-4" d="M1.28,19.2h.38v.74h.66V19.2H2.7v2H2.32V20.3H1.66v.86H1.28Z"/><path class="cls-4" d="M4.56,20.54H3.39a.36.36,0,0,0,.13.24.4.4,0,0,0,.28.1.45.45,0,0,0,.35-.15l.31.15a.76.76,0,0,1-.27.24.92.92,0,0,1-.38.08A.77.77,0,0,1,3.25,21,.73.73,0,0,1,3,20.44a.77.77,0,0,1,.21-.55.7.7,0,0,1,.54-.22.72.72,0,0,1,.55.22.78.78,0,0,1,.22.58Zm-.37-.29a.33.33,0,0,0-.14-.19A.36.36,0,0,0,3.8,20a.45.45,0,0,0-.26.08.49.49,0,0,0-.14.19Z"/><path class="cls-4" d="M5.92,19.71h.37v1.45H5.92V21a.85.85,0,0,1-.21.14.59.59,0,0,1-.23.05A.68.68,0,0,1,5,21a.76.76,0,0,1-.21-.54.77.77,0,0,1,.2-.55.64.64,0,0,1,.48-.22.7.7,0,0,1,.25,0,.51.51,0,0,1,.21.15Zm-.38.3a.36.36,0,0,0-.28.12.4.4,0,0,0-.11.3.45.45,0,0,0,.11.31.38.38,0,0,0,.28.12.36.36,0,0,0,.28-.12.46.46,0,0,0,0-.62A.39.39,0,0,0,5.54,20Z"/><path class="cls-4" d="M6.57,19.71h.31v.18A.35.35,0,0,1,7,19.73a.33.33,0,0,1,.19-.06.28.28,0,0,1,.15,0L7.23,20l-.1,0a.15.15,0,0,0-.14.1.94.94,0,0,0-.06.41v.66H6.57Z"/><path class="cls-4" d="M7.57,19.17h.36v.54h.22V20H7.93v1.14H7.57V20H7.38v-.31h.19Z"/><path class="cls-4" d="M10.18,19.71h.36v1.45h-.36V21a.85.85,0,0,1-.21.14.64.64,0,0,1-.24.05A.66.66,0,0,1,9.25,21,.76.76,0,0,1,9,20.44a.77.77,0,0,1,.2-.55.61.61,0,0,1,.48-.22.7.7,0,0,1,.25,0,.58.58,0,0,1,.21.15ZM9.8,20a.35.35,0,0,0-.28.12.4.4,0,0,0-.11.3.41.41,0,0,0,.11.31.39.39,0,0,0,.56,0,.46.46,0,0,0,0-.62A.39.39,0,0,0,9.8,20Z"/><path class="cls-4" d="M10.91,19.71h.37v.15a.86.86,0,0,1,.22-.15.52.52,0,0,1,.21,0,.49.49,0,0,1,.36.15.5.5,0,0,1,.13.38v1h-.36v-.64a2.22,2.22,0,0,0,0-.34.25.25,0,0,0-.09-.13.2.2,0,0,0-.14-.05.27.27,0,0,0-.19.08.43.43,0,0,0-.11.2,2.12,2.12,0,0,0,0,.3v.58h-.37Z"/><path class="cls-4" d="M13.62,19.15H14v2h-.36V21a.85.85,0,0,1-.21.14.6.6,0,0,1-.24.05.67.67,0,0,1-.48-.22.76.76,0,0,1-.21-.54.77.77,0,0,1,.2-.55.62.62,0,0,1,.48-.22.7.7,0,0,1,.25,0,.51.51,0,0,1,.21.15Zm-.38.86a.36.36,0,0,0-.28.12.4.4,0,0,0-.11.3.41.41,0,0,0,.11.31.38.38,0,0,0,.28.12.36.36,0,0,0,.28-.12.46.46,0,0,0,0-.62A.39.39,0,0,0,13.24,20Z"/><path class="cls-4" d="M15.16,19.2h.37v.74h.66V19.2h.38v2h-.38V20.3h-.66v.86h-.37Z"/><path class="cls-4" d="M18,19.71h.37v1.45H18V21a.85.85,0,0,1-.21.14.59.59,0,0,1-.23.05.68.68,0,0,1-.49-.22.8.8,0,0,1-.2-.54.73.73,0,0,1,.2-.55.61.61,0,0,1,.48-.22.64.64,0,0,1,.24,0,.51.51,0,0,1,.21.15Zm-.38.3a.38.38,0,0,0-.28.12.44.44,0,0,0-.11.3.45.45,0,0,0,.11.31.38.38,0,0,0,.28.12.38.38,0,0,0,.29-.12.49.49,0,0,0,0-.62A.42.42,0,0,0,17.66,20Z"/><path class="cls-4" d="M18.62,19.71H19l.37.85.36-.85h.37l-.61,1.45h-.24Z"/><path class="cls-4" d="M21.76,20.54H20.59a.41.41,0,0,0,.13.24.41.41,0,0,0,.29.1.49.49,0,0,0,.35-.15l.3.15a.68.68,0,0,1-.27.24.92.92,0,0,1-.38.08.79.79,0,0,1-.56-.22.73.73,0,0,1-.21-.54.77.77,0,0,1,.21-.55.7.7,0,0,1,.54-.22.75.75,0,0,1,.56.22.81.81,0,0,1,.21.58Zm-.37-.29a.33.33,0,0,0-.14-.19A.35.35,0,0,0,21,20a.48.48,0,0,0-.27.08.48.48,0,0,0-.13.19Z"/><path class="cls-4" d="M22.05,19.71h.37v.15a.86.86,0,0,1,.22-.15.52.52,0,0,1,.21,0,.49.49,0,0,1,.36.15.5.5,0,0,1,.13.38v1H23v-.64a2.22,2.22,0,0,0,0-.34.32.32,0,0,0-.08-.13.25.25,0,0,0-.15-.05.29.29,0,0,0-.19.08.43.43,0,0,0-.11.2,2.12,2.12,0,0,0,0,.3v.58h-.37Z"/><path class="cls-4" d="M26.3,19.54l-.26.25a.81.81,0,0,0-.6-.28.65.65,0,0,0-.48.19.69.69,0,0,0-.19.48.64.64,0,0,0,.09.34.47.47,0,0,0,.24.24.67.67,0,0,0,.34.09.73.73,0,0,0,.3-.06,1.26,1.26,0,0,0,.3-.22l.25.26a1.47,1.47,0,0,1-.41.3,1.23,1.23,0,0,1-.44.08,1,1,0,0,1-.75-.29,1.11,1.11,0,0,1-.16-1.27,1.08,1.08,0,0,1,.91-.5,1.07,1.07,0,0,1,.47.1A1.24,1.24,0,0,1,26.3,19.54Z"/><path class="cls-4" d="M27.66,19.71H28v1.45h-.36V21a1.13,1.13,0,0,1-.22.14.59.59,0,0,1-.23.05.68.68,0,0,1-.49-.22.8.8,0,0,1-.2-.54.73.73,0,0,1,.2-.55.62.62,0,0,1,.72-.17.62.62,0,0,1,.22.15Zm-.39.3a.38.38,0,0,0-.28.12.44.44,0,0,0-.11.3.45.45,0,0,0,.11.31.38.38,0,0,0,.28.12.38.38,0,0,0,.29-.12.49.49,0,0,0,0-.62A.42.42,0,0,0,27.27,20Z"/><path class="cls-4" d="M28.3,19.71h.31v.18a.37.37,0,0,1,.14-.16.3.3,0,0,1,.18-.06.28.28,0,0,1,.15,0L29,20l-.11,0a.17.17,0,0,0-.14.1.94.94,0,0,0-.06.41v.66H28.3Z"/><path class="cls-4" d="M30.71,20.54H29.54a.42.42,0,0,0,.14.24.39.39,0,0,0,.28.1.47.47,0,0,0,.35-.15l.31.15a.71.71,0,0,1-.28.24.86.86,0,0,1-.38.08.76.76,0,0,1-.55-.22.7.7,0,0,1-.22-.54.74.74,0,0,1,.22-.55.69.69,0,0,1,.53-.22.73.73,0,0,1,.56.22.82.82,0,0,1,.22.58Zm-.36-.29a.33.33,0,0,0-.14-.19A.38.38,0,0,0,30,20a.5.5,0,0,0-.27.08.62.62,0,0,0-.13.19Z"/><path class="cls-4" d="M7,22.3l-.11,0a.24.24,0,0,0-.08.06.19.19,0,0,0,0,.09.22.22,0,0,0,0,.12.49.49,0,0,0,0,.12.24.24,0,0,0,.06.08.16.16,0,0,0,.08.05l.1,0H7l.09,0V23L7,23h-.1a.47.47,0,0,1-.17,0,.32.32,0,0,1-.12-.08.24.24,0,0,1-.07-.12.4.4,0,0,1,0-.15.47.47,0,0,1,0-.17.35.35,0,0,1,.08-.13.36.36,0,0,1,.12-.08.47.47,0,0,1,.17,0H7l.08,0v.12l-.09,0Z"/><path class="cls-4" d="M8,22.77H7.67L7.6,23H7.45l.3-.76h.13l.3.76H8Zm-.15-.39a1.5,1.5,0,0,1-.07.2l0,.07h.19l0-.07a1.5,1.5,0,0,1-.07-.2Z"/><path class="cls-4" d="M9.12,22.43a.24.24,0,0,1,0,.14.32.32,0,0,1-.13.08h0l.22.31H9l-.2-.29h-.1V23H8.55V22.2h.34l.09,0a.18.18,0,0,1,.1.07A.28.28,0,0,1,9.12,22.43Zm-.36.12h.08l.06,0a.09.09,0,0,0,.06,0,.19.19,0,0,0,0-.12s0,0,0,0l-.05,0H8.69v.23Z"/><path class="cls-4" d="M9.55,23V22.2h.14V23Z"/><path class="cls-4" d="M10.53,22.56a1.67,1.67,0,0,1,.13.2h0a2,2,0,0,1,0-.21V22.2h.14V23h-.15l-.25-.35-.13-.21h0V23h-.14V22.2h.15Z"/><path class="cls-4" d="M11.72,22.67h-.17v-.11h.31v.38h0l-.06,0h-.14a.48.48,0,0,1-.18,0,.35.35,0,0,1-.13-.08.24.24,0,0,1-.07-.12.33.33,0,0,1,0-.15s0-.08,0-.11a1,1,0,0,1,0-.1l.07-.09.08-.06.11,0h.23l.08,0v.11l-.09,0h-.09l-.12,0-.09.06a.15.15,0,0,0-.06.09.22.22,0,0,0,0,.12.24.24,0,0,0,.07.2.24.24,0,0,0,.19.07h.1Z"/><path class="cls-4" d="M12.94,23H12.8V22.2h.48v.12h-.34v.2h.29v.11h-.29Z"/><path class="cls-4" d="M14.23,22.43a.23.23,0,0,1,0,.14.37.37,0,0,1-.14.08h0l.23.31h-.17l-.21-.29h-.09V23h-.14V22.2H14l.08,0a.21.21,0,0,1,.11.07A.28.28,0,0,1,14.23,22.43Zm-.35.12H14l0,0a.09.09,0,0,0,.06,0,.14.14,0,0,0,0-.06s0,0,0-.06a.09.09,0,0,0-.05,0l0,0h-.17v.23Z"/><path class="cls-4" d="M15.37,22.58a.78.78,0,0,1,0,.16.54.54,0,0,1-.07.13l-.12.08a.44.44,0,0,1-.32,0l-.11-.08a.35.35,0,0,1-.08-.13.65.65,0,0,1,0-.32.25.25,0,0,1,.08-.12.28.28,0,0,1,.11-.08.4.4,0,0,1,.44.08.35.35,0,0,1,.07.12A.78.78,0,0,1,15.37,22.58Zm-.14,0a.5.5,0,0,0,0-.12.41.41,0,0,0-.05-.09.18.18,0,0,0-.07-.05l-.09,0-.09,0a.18.18,0,0,0-.07.05.41.41,0,0,0-.05.09.5.5,0,0,0,0,.12.37.37,0,0,0,0,.12.19.19,0,0,0,.05.09.18.18,0,0,0,.07.05l.09,0,.09,0a.18.18,0,0,0,.07-.05.19.19,0,0,0,.05-.09A.37.37,0,0,0,15.23,22.58Z"/><path class="cls-4" d="M16.18,22.76a.7.7,0,0,1,.06-.19l.13-.37h.2V23h-.14v-.58h0l0,.07a.19.19,0,0,1,0,.08l-.16.43h-.09L16,22.53l0-.08a.19.19,0,0,0,0-.07h0V23h-.14V22.2H16l.13.36.06.2Z"/><path class="cls-4" d="M17.75,23h-.14v-.64h-.25V22.2H18v.12h-.24Z"/><path class="cls-4" d="M18.5,22.52h.36V22.2H19V23h-.14v-.33H18.5V23h-.14V22.2h.14Z"/><path class="cls-4" d="M19.58,22.85H20V23h-.52V22.2h.5v.12h-.36v.2h.31v.11h-.31Z"/><path class="cls-4" d="M21,22.52h.35V22.2h.14V23h-.14v-.33H21V23h-.14V22.2H21Z"/><path class="cls-4" d="M22.09,22.85h.37V23H22V22.2h.49v.12h-.35v.2h.3v.11h-.3Z"/><path class="cls-4" d="M23.31,22.77H23L23,23H22.8l.3-.76h.13l.3.76h-.14Zm-.14-.39a1.38,1.38,0,0,1-.08.2l0,.07h.2l0-.07-.07-.2Z"/><path class="cls-4" d="M24.47,22.43a.24.24,0,0,1,0,.14.32.32,0,0,1-.13.08h0l.22.31h-.16l-.21-.29H24V23H23.9V22.2h.34l.09,0a.18.18,0,0,1,.1.07A.2.2,0,0,1,24.47,22.43Zm-.36.12h.08l.06,0a.09.09,0,0,0,.06,0,.18.18,0,0,0,0-.12s0,0,0,0l-.05,0H24v.23Z"/><path class="cls-4" d="M25.21,23h-.14v-.64h-.24V22.2h.63v.12h-.25Z"/></svg>