<svg id="Layer_1" data-name="Layer 1" xmlns="http://www.w3.org/2000/svg" xmlns:xlink="http://www.w3.org/1999/xlink" viewBox="0 0 256 256"><defs><style>.cls-1{fill:#622c84;}.cls-2{fill:url(#linear-gradient);}.cls-3{fill:url(#linear-gradient-2);}.cls-4{fill:#e2cbac;}</style><linearGradient id="linear-gradient" x1="90.24" y1="103.81" x2="165.84" y2="103.81" gradientUnits="userSpaceOnUse"><stop offset="0" stop-color="#876226"/><stop offset="0.01" stop-color="#8a6628"/><stop offset="0.21" stop-color="#b69542"/><stop offset="0.38" stop-color="#d5b754"/><stop offset="0.52" stop-color="#e8cc60"/><stop offset="0.62" stop-color="#efd464"/><stop offset="0.64" stop-color="#f2da6c"/><stop offset="0.7" stop-color="#f8e881"/><stop offset="0.76" stop-color="#fcf08e"/><stop offset="0.82" stop-color="#fdf392"/><stop offset="0.86" stop-color="#fbf08d"/><stop offset="0.91" stop-color="#f7e680"/><stop offset="0.96" stop-color="#f0d76a"/><stop offset="1" stop-color="#e8c753"/></linearGradient><linearGradient id="linear-gradient-2" x1="90.16" y1="64.19" x2="165.36" y2="64.19" xlink:href="#linear-gradient"/></defs><rect class="cls-1" width="256" height="256"/><path class="cls-2" d="M165.81,94.56a4,4,0,0,0-.07-1.24,1.25,1.25,0,0,1,0-.61c0-.21-.13-.37-.11-.57a.74.74,0,0,0-.08-.58,8.87,8.87,0,0,0-.29-1.62,11,11,0,0,0-.31-1.29,24.72,24.72,0,0,0-.94-2.53,20.27,20.27,0,0,0-1.17-2.21,14.46,14.46,0,0,0-1-1.55,21.76,21.76,0,0,0-1.55-1.9c-.65-.65-1.28-1.32-2-1.91a5.92,5.92,0,0,0-.57-.45c-.2-.13-.39-.29-.58-.42a11.47,11.47,0,0,0-1.25-.85c-.44-.24-.85-.52-1.29-.76s-1.06-.49-1.58-.75a2.39,2.39,0,0,0-.6-.25c-.22,0-.39-.2-.62-.22s-.32-.14-.49-.18c-.53-.1-1.05-.29-1.57-.43a3.39,3.39,0,0,1-.52-.1,6.94,6.94,0,0,0-1-.22c-.16,0-.35,0-.5,0a.65.65,0,0,0-.45,0c-.17,0-.32-.09-.48-.1-.47,0-.94,0-1.42-.08a3.41,3.41,0,0,0-1.52.08,13.57,13.57,0,0,0-1.8.09c-.27,0-.52.16-.81.1-.13.19-.37,0-.5.13s-.36,0-.53.11a1.13,1.13,0,0,1-.51.13c-.53.11-1,.3-1.56.45s-1.14.43-1.71.66a19.91,19.91,0,0,0-2.57,1.29,18.42,18.42,0,0,0-1.59,1.07,16.48,16.48,0,0,0-1.93,1.59c-3.07,3-6.12,6.11-9.18,9.16a2.17,2.17,0,0,0-.4.6,1.32,1.32,0,0,0,.11,1.39,3.21,3.21,0,0,0,1,.87,3.6,3.6,0,0,0,1.17.36,3.45,3.45,0,0,0,.85,0,1.49,1.49,0,0,0,.81-.09,4.72,4.72,0,0,0,1.64-.49,6.68,6.68,0,0,0,2-1.42c1.83-1.85,3.68-3.69,5.53-5.53.07-.07.13-.14.2-.2a1.29,1.29,0,0,1,.79-.37c.4,0,.84-.14,1.16.25a1.41,1.41,0,0,1,.58,1.73c0,.08,0,.19-.06.26a7.21,7.21,0,0,0-.56.66c-2.75,2.73-5.47,5.48-8.22,8.2s-5.4,5.5-8.21,8.15c-.46.43-.86.94-1.32,1.38-.3.29-.7.49-.89.9L115.48,107a.21.21,0,0,1-.35,0l-1.94-1.93c2.26-2.34,4.6-4.54,6.79-6.89,1.1-1.17,2.26-2.27,3.4-3.41l.31-.31a1.51,1.51,0,0,1-.44-.1,4.41,4.41,0,0,1-1.11-.28,11.36,11.36,0,0,1-1.67-.75,11.18,11.18,0,0,1-1.3-1,5.07,5.07,0,0,1-1-1.24,4.65,4.65,0,0,1-.58-1.79V88.8a3.38,3.38,0,0,1,.42-1.66,5.73,5.73,0,0,1,1.16-1.65c1-.91,1.85-1.89,2.85-2.77s1.89-2,2.94-2.83a8.48,8.48,0,0,0,.6-.6c0-.24-.19-.16-.27-.26A15.86,15.86,0,0,0,124,77.89a4.5,4.5,0,0,0-.5-.39c-.66-.41-1.31-.85-2-1.22s-1.54-.75-2.31-1.12c-.24,0-.41-.16-.62-.22-.63-.18-1.24-.44-1.88-.59-.36-.08-.71-.19-1.07-.25A6.69,6.69,0,0,1,115,74c-.18-.06-.37,0-.53-.08a.82.82,0,0,0-.53-.08c-.2,0-.34-.1-.52-.11a2.56,2.56,0,0,1-1.1-.09,9.49,9.49,0,0,0-2.13.1,14.48,14.48,0,0,0-1.47.08c-.31,0-.59.17-.9.11-.14.19-.38,0-.51.13s-.35,0-.52.11a1.37,1.37,0,0,1-.51.13l-1.56.45c-.28.08-.55.21-.82.29a16,16,0,0,0-1.53.65,9.21,9.21,0,0,0-1.39.73c-.41.25-.82.47-1.21.74s-.73.52-1.09.78A12.1,12.1,0,0,0,97,79.31c-.53.56-1.1,1.06-1.58,1.65s-.83,1-1.19,1.5a8,8,0,0,0-.68,1,7.56,7.56,0,0,1-.6,1A9.92,9.92,0,0,0,92.17,86c-.23.53-.43,1.08-.64,1.62s-.42,1.31-.6,2A6.16,6.16,0,0,0,90.64,91c-.16.15,0,.36-.1.52a.84.84,0,0,0-.08.53c0,.2-.11.35-.11.53a5.61,5.61,0,0,1-.07,1,5.17,5.17,0,0,0,0,1.18,3.65,3.65,0,0,0,.07,1.14,1.72,1.72,0,0,1,0,.75c0,.26.15.47.1.72s.16.59.09.9c.2.14,0,.37.14.51s-.05.41.15.55c-.07.2.06.36.1.53.09.41.23.82.34,1.22s.28.74.39,1.11a9,9,0,0,0,.43,1.1,16,16,0,0,0,1.13,2.17c.34.54.69,1.08,1.07,1.59a17,17,0,0,0,1.46,1.79c1.85,1.91,3.76,3.76,5.62,5.65s3.83,3.71,5.61,5.7l12,12a2.22,2.22,0,0,0,.53.43,2.42,2.42,0,0,0,1.27.46.51.51,0,0,1,.21.06.41.41,0,0,0,.44,0,.4.4,0,0,1,.26,0,3,3,0,0,0,1-.35,2.61,2.61,0,0,0,.86-.76,3,3,0,0,0,.62-1.63,2.47,2.47,0,0,0-.07-.81,2.57,2.57,0,0,0-.66-1.29l-4.84-4.92c-3.65-3.72-7.36-7.4-11.07-11.07a1.69,1.69,0,0,1-.23-1.92,1.94,1.94,0,0,1,.48-.51,1.35,1.35,0,0,1,1.2-.19,2.34,2.34,0,0,1,.86.55q8,8.05,16.07,16.08a.87.87,0,0,0,.16.17,4,4,0,0,0,.83.5,2.57,2.57,0,0,0,1.72.11,2.73,2.73,0,0,0,1.47-.77l16.08-16.08a1.26,1.26,0,0,1,.2-.2,1.71,1.71,0,0,1,.91-.4,1.57,1.57,0,0,1,1.22.48,1.61,1.61,0,0,1,.48.94,1.27,1.27,0,0,1-.43,1.14l-16.24,16.23a6.6,6.6,0,0,0-.89,1.1,1.8,1.8,0,0,0-.36,1.08c0,.27,0,.53,0,.8a3.8,3.8,0,0,0,.22.85,3.05,3.05,0,0,0,2.48,1.7,1.9,1.9,0,0,0,.85-.07,2.93,2.93,0,0,0,1.33-.69q9.6-9.6,19.2-19.22c2.06-2.07,4.23-4,6.11-6.28.17-.21.31-.44.47-.65a12,12,0,0,0,.86-1.25c.24-.42.51-.83.73-1.25s.53-1.11.78-1.66c.17-.37.3-.76.45-1.14a13.56,13.56,0,0,0,.43-1.37,4,4,0,0,0,.22-.8c0-.41.27-.78.2-1.2.16-.15,0-.36.11-.52a.9.9,0,0,0,.07-.53c0-.2.11-.35.11-.53a5.67,5.67,0,0,1,.07-1A5.39,5.39,0,0,0,165.81,94.56ZM119.5,111.41c0-.06.11-.11.19-.18q6.87-6.89,13.76-13.78c.17-.16.37-.27.54-.41a.46.46,0,0,1,.38-.12,1.19,1.19,0,0,0,.42,0,1.07,1.07,0,0,1,.85.34,1.81,1.81,0,0,1,.37.41,1.48,1.48,0,0,1,0,1.58,2.61,2.61,0,0,1-.35.47q-7,6.94-13.91,13.9Zm22.71-5.54c-.05.07-.13.13-.19.2l-14,14-2.12-2.12c0-.12.07-.17.13-.23l14-14a1.4,1.4,0,0,1,2,0,2,2,0,0,1,.49.75A1.46,1.46,0,0,1,142.21,105.87Z"/><path class="cls-3" d="M91.91,73.43a1.65,1.65,0,0,0,.85.21c.22,0,.44,0,.66,0a.62.62,0,0,0,.26-.06c.52-.18,1-.38,1.55-.58.35-.14.7-.29,1.06-.4a10.52,10.52,0,0,0,1-.43l1.06-.41,1.55-.59c.36-.14.71-.32,1.08-.45.81-.28,1.6-.61,2.39-.94a6.17,6.17,0,0,1,1.07-.37c.56-.13,1.1-.34,1.65-.46s.82-.25,1.24-.32a7.79,7.79,0,0,0,1-.2c.67-.19,1.34-.32,2-.45a6,6,0,0,0,.61-.12,9,9,0,0,1,1.26-.24l.85-.13a8.87,8.87,0,0,0,1.15-.18c.26-.07.52,0,.76-.1a1.19,1.19,0,0,1,.48-.07c.19,0,.3-.13.48-.11.45.07.88-.15,1.33-.09h0a.79.79,0,0,1,.62-.08,3.21,3.21,0,0,0,.62-.1,8.33,8.33,0,0,0,.86-.08c.37-.08.76,0,1.14-.1s1,0,1.47-.09a5.7,5.7,0,0,1,1.37,0c.46,0,.91-.13,1.37-.11s.88,0,1.32,0h2.69c.44,0,.88,0,1.32,0a10.87,10.87,0,0,1,1.28.11,5.44,5.44,0,0,1,1.66.09c.73-.07,1.45.11,2.18.09.14,0,.31-.05.41,0a.81.81,0,0,0,.58.08c.23,0,.41.14.63.1.43-.07.84.15,1.28.09h0a.74.74,0,0,0,.58.08c.21,0,.37.12.57.1s.66.17,1,.1c.19.13.42,0,.62.1a2.17,2.17,0,0,0,.67.09s.08,0,.09,0,.29.08.44.09.3.16.48.09.27.11.43.1a6.5,6.5,0,0,1,1.06.17l1.53.3,1,.22c.46.11.91.22,1.36.35s.66.15,1,.26a8.94,8.94,0,0,0,1,.29,19.49,19.49,0,0,1,2,.64c.44.16.9.3,1.34.5s1.15.41,1.72.64,1.19.45,1.77.74a.94.94,0,0,0,.55.14c.08,0,.15,0,.21,0a8,8,0,0,0,1.25.42,18.53,18.53,0,0,0,2,.79c1.45.53,1.17.42,2,.44a2.34,2.34,0,0,0,1.05-.31,2.42,2.42,0,0,0,1-.83,2.35,2.35,0,0,0,.52-1.53,2.94,2.94,0,0,1,0-.42,1.77,1.77,0,0,0-.2-.82,2.47,2.47,0,0,0-1.24-1.35c-.4-.2-.83-.34-1.25-.5s-.8-.28-1.19-.44c-.59-.24-1.2-.45-1.79-.68L158,66.12c-.3-.11-.6-.23-.9-.32s-.77-.28-1.15-.42l-1.39-.52-1.26-.47c-.34-.13-.68-.27-1-.38s-.93-.33-1.39-.52l-1.78-.69-2.75-1c-.77-.27-1.52-.57-2.28-.86l-1.51-.56L141,59.79l-.91-.32-1.39-.5-1.92-.72c-.46-.15-.91-.32-1.36-.49s-1-.34-1.42-.55a10.73,10.73,0,0,1-1.42-.56c-.77-.17-1.46-.59-2.23-.75a7.67,7.67,0,0,0-1.3-.52c-.43-.18-.88-.3-1.31-.48a2,2,0,0,0-1.26-.11,6.15,6.15,0,0,0-1.48.5c-.34.16-.7.28-1,.42l-1.55.58-1.09.46c-.51.2-1,.36-1.55.58s-1,.46-1.53.63c-.89.29-1.71.75-2.62,1a8.46,8.46,0,0,1-1.28.54c-.44.18-.91.32-1.35.51s-.85.37-1.29.52a7.27,7.27,0,0,1-1.35.49c-.78.43-1.66.64-2.46,1a8.55,8.55,0,0,1-1.22.47c-.43.13-.81.36-1.28.47V57H97v.47c0,2.81,0,5.63,0,8.44a.48.48,0,0,1-.37.55c-.21.06-.4.17-.61.24-.65.21-1.27.49-1.9.75s-1,.37-1.56.58a4.21,4.21,0,0,0-1.63,1,2.71,2.71,0,0,0-.72,1.49,2.79,2.79,0,0,0,.8,2.36A3.22,3.22,0,0,0,91.91,73.43Z"/><path class="cls-4" d="M10.28,153.58h3v5.92h5.24v-5.92h3v15.69h-3v-6.88H13.31v6.88h-3Z"/><path class="cls-4" d="M36.45,164.31H27.1a3.12,3.12,0,0,0,1.08,2,3.4,3.4,0,0,0,2.25.73,3.88,3.88,0,0,0,2.8-1.14L35.68,167A5.81,5.81,0,0,1,33.49,169a7,7,0,0,1-3,.62A6,6,0,0,1,26,167.85a5.9,5.9,0,0,1-1.72-4.32A6,6,0,0,1,26,159.12a5.74,5.74,0,0,1,4.29-1.75,6,6,0,0,1,4.46,1.75,6.37,6.37,0,0,1,1.71,4.64ZM33.54,162a2.9,2.9,0,0,0-1.14-1.58,3.25,3.25,0,0,0-2-.61,3.5,3.5,0,0,0-2.13.68A3.73,3.73,0,0,0,27.23,162Z"/><path class="cls-4" d="M47.37,157.67h2.92v11.6H47.37V168a5.56,5.56,0,0,1-1.71,1.17,4.73,4.73,0,0,1-1.85.36,5.16,5.16,0,0,1-3.89-1.74,6.08,6.08,0,0,1-1.64-4.34,6.25,6.25,0,0,1,1.58-4.4,5.06,5.06,0,0,1,3.86-1.72,4.93,4.93,0,0,1,2,.39A5.32,5.32,0,0,1,47.37,159Zm-3.06,2.39a2.93,2.93,0,0,0-2.24.95,3.81,3.81,0,0,0,0,4.92,2.92,2.92,0,0,0,2.23,1,3,3,0,0,0,2.28-1,3.5,3.5,0,0,0,.9-2.5,3.42,3.42,0,0,0-.9-2.46A3.06,3.06,0,0,0,44.31,160.06Z"/><path class="cls-4" d="M52.55,157.67H55v1.46a3,3,0,0,1,1.08-1.31,2.6,2.6,0,0,1,1.47-.45,2.75,2.75,0,0,1,1.19.3l-.91,2.5a2,2,0,0,0-.84-.25,1.33,1.33,0,0,0-1.14.83,7.59,7.59,0,0,0-.46,3.26v5.26H52.55Z"/><path class="cls-4" d="M60.57,153.39h2.91v4.28h1.73v2.5H63.48v9.1H60.57v-9.1h-1.5v-2.5h1.5Z"/><path class="cls-4" d="M81.44,157.67h2.91v11.6H81.44V168a5.8,5.8,0,0,1-1.71,1.17,4.74,4.74,0,0,1-1.86.36A5.18,5.18,0,0,1,74,167.83a6.12,6.12,0,0,1-1.64-4.34,6.21,6.21,0,0,1,1.59-4.4,5,5,0,0,1,3.86-1.72,5,5,0,0,1,2,.39A5.43,5.43,0,0,1,81.44,159Zm-3.06,2.39a2.91,2.91,0,0,0-2.24.95,3.43,3.43,0,0,0-.9,2.45,3.48,3.48,0,0,0,.91,2.47,2.94,2.94,0,0,0,2.24,1,3,3,0,0,0,2.27-1,3.47,3.47,0,0,0,.91-2.5,3.38,3.38,0,0,0-.91-2.46A3,3,0,0,0,78.38,160.06Z"/><path class="cls-4" d="M87.3,157.67h2.91v1.19A7.11,7.11,0,0,1,92,157.69a4.52,4.52,0,0,1,1.65-.32,4,4,0,0,1,2.93,1.2,4.18,4.18,0,0,1,1,3v7.67H94.71v-5.08a12.34,12.34,0,0,0-.19-2.76,1.89,1.89,0,0,0-.65-1,1.81,1.81,0,0,0-1.14-.36,2.13,2.13,0,0,0-1.52.6,3.21,3.21,0,0,0-.88,1.63,14.06,14.06,0,0,0-.12,2.36v4.65H87.3Z"/><path class="cls-4" d="M109,153.19h2.91v16.08H109V168a5.8,5.8,0,0,1-1.71,1.17,4.74,4.74,0,0,1-1.86.36,5.16,5.16,0,0,1-3.89-1.74,6.12,6.12,0,0,1-1.64-4.34,6.21,6.21,0,0,1,1.59-4.4,5,5,0,0,1,3.85-1.72,4.93,4.93,0,0,1,2,.39A5.47,5.47,0,0,1,109,159Zm-3.06,6.87a3,3,0,0,0-2.25.95,3.81,3.81,0,0,0,0,4.92,2.94,2.94,0,0,0,2.24,1,3,3,0,0,0,2.27-1,3.51,3.51,0,0,0,.91-2.5,3.43,3.43,0,0,0-.91-2.46A3,3,0,0,0,105.91,160.06Z"/><path class="cls-4" d="M121.24,153.58h3v5.92h5.24v-5.92h3v15.69h-3v-6.88h-5.24v6.88h-3Z"/><path class="cls-4" d="M144.36,157.67h2.91v11.6h-2.91V168a5.8,5.8,0,0,1-1.71,1.17,4.82,4.82,0,0,1-1.86.36,5.16,5.16,0,0,1-3.89-1.74,6.08,6.08,0,0,1-1.64-4.34,6.21,6.21,0,0,1,1.59-4.4,5,5,0,0,1,3.85-1.72,4.93,4.93,0,0,1,2,.39,5.47,5.47,0,0,1,1.7,1.19Zm-3.06,2.39a2.93,2.93,0,0,0-2.25.95,3.81,3.81,0,0,0,0,4.92,2.92,2.92,0,0,0,2.24,1,3,3,0,0,0,2.27-1,3.5,3.5,0,0,0,.9-2.5,3.42,3.42,0,0,0-.9-2.46A3,3,0,0,0,141.3,160.06Z"/><path class="cls-4" d="M149,157.67h3l2.93,6.84,2.92-6.84h3l-4.93,11.6h-1.89Z"/><path class="cls-4" d="M174.07,164.31h-9.35a3.07,3.07,0,0,0,1.08,2A3.37,3.37,0,0,0,168,167a3.89,3.89,0,0,0,2.81-1.14L173.3,167a5.76,5.76,0,0,1-2.2,1.93,6.91,6.91,0,0,1-3,.62,6,6,0,0,1-4.45-1.72,5.86,5.86,0,0,1-1.72-4.32,6.06,6.06,0,0,1,1.71-4.41,5.74,5.74,0,0,1,4.3-1.75,5.94,5.94,0,0,1,4.45,1.75,6.34,6.34,0,0,1,1.72,4.64ZM171.16,162a2.9,2.9,0,0,0-1.14-1.58,3.27,3.27,0,0,0-2-.61,3.52,3.52,0,0,0-2.14.68,3.93,3.93,0,0,0-1.07,1.51Z"/><path class="cls-4" d="M176.43,157.67h2.91v1.19a7.11,7.11,0,0,1,1.79-1.17,4.52,4.52,0,0,1,1.65-.32,4,4,0,0,1,2.93,1.2,4.18,4.18,0,0,1,1,3v7.67h-2.88v-5.08a12.34,12.34,0,0,0-.19-2.76,1.89,1.89,0,0,0-.65-1,1.79,1.79,0,0,0-1.14-.36,2.15,2.15,0,0,0-1.52.6,3.13,3.13,0,0,0-.87,1.63,12.68,12.68,0,0,0-.13,2.36v4.65h-2.91Z"/><path class="cls-4" d="M210.39,156.34l-2.09,2a6.47,6.47,0,0,0-4.8-2.25,5.26,5.26,0,0,0-5.33,5.33,5.54,5.54,0,0,0,.69,2.78,4.83,4.83,0,0,0,1.92,1.91,5.57,5.57,0,0,0,2.78.7,5.77,5.77,0,0,0,2.37-.49,8.32,8.32,0,0,0,2.37-1.77l2,2.12A11.18,11.18,0,0,1,207,169a8.92,8.92,0,0,1-3.53.66,8.15,8.15,0,0,1-6-2.32,8,8,0,0,1-2.33-5.95,8.13,8.13,0,0,1,1.06-4.17,7.87,7.87,0,0,1,3-2.93,8.57,8.57,0,0,1,4.26-1.11,9.06,9.06,0,0,1,6.84,3.15Z"/><path class="cls-4" d="M221.24,157.67h2.92v11.6h-2.92V168a5.56,5.56,0,0,1-1.71,1.17,4.74,4.74,0,0,1-1.86.36,5.16,5.16,0,0,1-3.88-1.74,6.08,6.08,0,0,1-1.64-4.34,6.25,6.25,0,0,1,1.58-4.4,5.06,5.06,0,0,1,3.86-1.72,4.93,4.93,0,0,1,2,.39,5.32,5.32,0,0,1,1.69,1.19Zm-3.06,2.39a2.93,2.93,0,0,0-2.24.95,3.81,3.81,0,0,0,0,4.92,2.92,2.92,0,0,0,2.23,1,3,3,0,0,0,2.28-1,3.5,3.5,0,0,0,.9-2.5,3.42,3.42,0,0,0-.9-2.46A3.06,3.06,0,0,0,218.18,160.06Z"/><path class="cls-4" d="M226.42,157.67h2.49v1.46a3,3,0,0,1,1.08-1.31,2.6,2.6,0,0,1,1.47-.45,2.68,2.68,0,0,1,1.18.3l-.9,2.5a2,2,0,0,0-.84-.25,1.33,1.33,0,0,0-1.14.83,7.59,7.59,0,0,0-.46,3.26v5.26h-2.89Z"/><path class="cls-4" d="M245.71,164.31h-9.35a3.07,3.07,0,0,0,1.08,2,3.37,3.37,0,0,0,2.24.73,3.89,3.89,0,0,0,2.81-1.14l2.45,1.15a5.76,5.76,0,0,1-2.2,1.93,6.91,6.91,0,0,1-3,.62,6,6,0,0,1-4.45-1.72,5.86,5.86,0,0,1-1.72-4.32,6.06,6.06,0,0,1,1.71-4.41,5.74,5.74,0,0,1,4.3-1.75,5.94,5.94,0,0,1,4.45,1.75,6.34,6.34,0,0,1,1.72,4.64ZM242.8,162a2.9,2.9,0,0,0-1.14-1.58,3.27,3.27,0,0,0-2-.61,3.55,3.55,0,0,0-2.14.68,3.93,3.93,0,0,0-1.07,1.51Z"/><path class="cls-4" d="M55.58,178.44a2.32,2.32,0,0,0-.84.15,1.67,1.67,0,0,0-.66.44,2,2,0,0,0-.43.7,2.94,2.94,0,0,0-.16,1,3.06,3.06,0,0,0,.14,1,1.85,1.85,0,0,0,.41.68,1.68,1.68,0,0,0,.65.41,2.54,2.54,0,0,0,.86.14,4.34,4.34,0,0,0,.71-.06,3.45,3.45,0,0,0,.67-.15v1a4.42,4.42,0,0,1-.69.14,4.7,4.7,0,0,1-.76,0,3.86,3.86,0,0,1-1.37-.22,2.53,2.53,0,0,1-1-.62,2.58,2.58,0,0,1-.59-1,3.79,3.79,0,0,1-.2-1.24,3.9,3.9,0,0,1,.21-1.3,3,3,0,0,1,.61-1,2.88,2.88,0,0,1,1-.69,3.62,3.62,0,0,1,1.36-.26,4.23,4.23,0,0,1,.73.06,3.66,3.66,0,0,1,.63.14v.95a5.45,5.45,0,0,0-.68-.16A4.4,4.4,0,0,0,55.58,178.44Z"/><path class="cls-4" d="M63.67,182.15h-2.3l-.6,1.56H59.58l2.42-6.1h1l2.42,6.1H64.27Zm-1.16-3.07c-.21.63-.4,1.17-.57,1.6l-.21.54h1.58l-.21-.54c-.17-.44-.36-1-.57-1.6Z"/><path class="cls-4" d="M72.93,179.44a1.69,1.69,0,0,1-.35,1.08,2.07,2.07,0,0,1-1.09.66v0l1.81,2.51H72l-1.66-2.36h-.77v2.36H68.42v-6.1h1.85a5.77,5.77,0,0,1,.86,0,3,3,0,0,1,.68.16,1.74,1.74,0,0,1,.83.61A1.68,1.68,0,0,1,72.93,179.44Zm-2.84,1a6,6,0,0,0,.65,0,2.17,2.17,0,0,0,.44-.11.84.84,0,0,0,.47-.34,1,1,0,0,0,.13-.51.89.89,0,0,0-.1-.44.81.81,0,0,0-.35-.3,1.37,1.37,0,0,0-.4-.1,3.39,3.39,0,0,0-.6,0h-.8v1.87Z"/><path class="cls-4" d="M76.38,183.71v-6.1H77.5v6.1Z"/><path class="cls-4" d="M84.24,180.44c.44.63.79,1.18,1.07,1.66h0c0-.79-.06-1.37-.06-1.73v-2.76H86.4v6.1H85.23l-2-2.81c-.35-.49-.71-1.05-1.09-1.69h0q.06,1.13.06,1.74v2.76H81.06v-6.1h1.17Z"/><path class="cls-4" d="M93.75,181.38H92.39v-.94h2.48v3.08a3,3,0,0,1-.35.11l-.47.1-.54.07-.55,0a4.19,4.19,0,0,1-1.44-.22,2.62,2.62,0,0,1-1-.62,2.54,2.54,0,0,1-.61-1,3.4,3.4,0,0,1-.2-1.22,3.85,3.85,0,0,1,.1-.91,3,3,0,0,1,.32-.79,3,3,0,0,1,.5-.67,3.06,3.06,0,0,1,.68-.5,3.6,3.6,0,0,1,.83-.33,4.39,4.39,0,0,1,1-.11,4.79,4.79,0,0,1,.87.07,3.61,3.61,0,0,1,.68.16v.95a4.2,4.2,0,0,0-.72-.17,4.4,4.4,0,0,0-.73-.06,2.83,2.83,0,0,0-.93.15,2,2,0,0,0-.75.43,2.07,2.07,0,0,0-.5.72,2.48,2.48,0,0,0-.18,1,2.13,2.13,0,0,0,.57,1.62,2.19,2.19,0,0,0,1.59.54l.39,0,.36-.05Z"/><path class="cls-4" d="M103.49,183.71h-1.12v-6.1h3.89v.93h-2.77v1.58h2.36v.93h-2.36Z"/><path class="cls-4" d="M113.85,179.44a1.63,1.63,0,0,1-.35,1.08,2.07,2.07,0,0,1-1.09.66v0l1.81,2.51h-1.34l-1.66-2.36h-.76v2.36h-1.12v-6.1h1.85a5.77,5.77,0,0,1,.86,0,2.84,2.84,0,0,1,.68.16,1.69,1.69,0,0,1,.83.61A1.61,1.61,0,0,1,113.85,179.44Zm-2.84,1a6,6,0,0,0,.65,0,2.28,2.28,0,0,0,.45-.11.85.85,0,0,0,.46-.34,1,1,0,0,0,.13-.51.89.89,0,0,0-.1-.44.76.76,0,0,0-.35-.3,1.3,1.3,0,0,0-.4-.1,3.39,3.39,0,0,0-.6,0h-.79v1.87Z"/><path class="cls-4" d="M123,180.66a4,4,0,0,1-.2,1.28,2.69,2.69,0,0,1-.58,1,2.48,2.48,0,0,1-.93.65,3.59,3.59,0,0,1-2.53,0,2.48,2.48,0,0,1-.93-.65,2.83,2.83,0,0,1-.58-1,4,4,0,0,1-.2-1.28,4,4,0,0,1,.2-1.28,2.83,2.83,0,0,1,.58-1,2.48,2.48,0,0,1,.93-.65,3.45,3.45,0,0,1,2.53,0,2.48,2.48,0,0,1,.93.65,2.69,2.69,0,0,1,.58,1A4,4,0,0,1,123,180.66Zm-1.15,0a3.22,3.22,0,0,0-.14-1,2,2,0,0,0-.38-.69,1.46,1.46,0,0,0-.57-.42,2,2,0,0,0-.73-.13,1.9,1.9,0,0,0-.73.13,1.42,1.42,0,0,0-.58.42,2,2,0,0,0-.38.69,3.23,3.23,0,0,0-.13,1,3.16,3.16,0,0,0,.13,1,2,2,0,0,0,.38.7,1.5,1.5,0,0,0,.58.41,1.9,1.9,0,0,0,.73.14,2,2,0,0,0,.73-.14,1.54,1.54,0,0,0,.57-.41,2,2,0,0,0,.38-.7A3.15,3.15,0,0,0,121.83,180.66Z"/><path class="cls-4" d="M129.4,182.07c.14-.48.3-1,.5-1.54l1.06-2.92h1.56v6.1h-1.11v-3.09c0-.46,0-1,.05-1.58h0c0,.17-.11.37-.18.58s-.14.43-.22.64l-1.26,3.45H129l-1.27-3.45c-.07-.21-.15-.42-.22-.64s-.13-.41-.18-.58h0c0,.56,0,1.09,0,1.57v3.1h-1.11v-6.1h1.56l1,2.9c.18.49.34,1,.5,1.56Z"/><path class="cls-4" d="M142,183.71h-1.12v-5.17h-2v-.93h5.05v.93h-2Z"/><path class="cls-4" d="M148,180.12h2.83v-2.51H152v6.1h-1.12v-2.66H148v2.66H146.9v-6.1H148Z"/><path class="cls-4" d="M156.65,182.77h3v.94h-4.12v-6.1h3.95v.93h-2.83v1.58h2.43v.93h-2.43Z"/><path class="cls-4" d="M168.08,180.12h2.83v-2.51H172v6.1h-1.11v-2.66h-2.83v2.66H167v-6.1h1.12Z"/><path class="cls-4" d="M176.7,182.77h3v.94h-4.12v-6.1h4v.93H176.7v1.58h2.44v.93H176.7Z"/><path class="cls-4" d="M186.48,182.15h-2.29l-.6,1.56H182.4l2.42-6.1h1l2.42,6.1h-1.18Zm-1.15-3.07c-.22.63-.41,1.17-.57,1.6l-.21.54h1.57l-.2-.54c-.17-.44-.36-1-.57-1.6Z"/><path class="cls-4" d="M195.75,179.44a1.64,1.64,0,0,1-.36,1.08,2,2,0,0,1-1.09.66v0l1.82,2.51h-1.34l-1.66-2.36h-.77v2.36h-1.12v-6.1h1.86a5.86,5.86,0,0,1,.86,0,3,3,0,0,1,.68.16,1.79,1.79,0,0,1,.83.61A1.68,1.68,0,0,1,195.75,179.44Zm-2.85,1a5.92,5.92,0,0,0,.65,0,2.11,2.11,0,0,0,.45-.11.87.87,0,0,0,.47-.34,1,1,0,0,0,.13-.51,1,1,0,0,0-.1-.44.81.81,0,0,0-.35-.3,1.37,1.37,0,0,0-.4-.1,3.47,3.47,0,0,0-.6,0h-.8v1.87Z"/><path class="cls-4" d="M201.69,183.71h-1.11v-5.17h-2v-.93h5v.93h-2Z"/></svg>