<svg id="Layer_1" data-name="Layer 1" xmlns="http://www.w3.org/2000/svg" xmlns:xlink="http://www.w3.org/1999/xlink" viewBox="0 0 16 16"><defs><style>.cls-1{fill:#622c84;}.cls-2{fill:url(#linear-gradient);}.cls-3{fill:url(#linear-gradient-2);}.cls-4{fill:#e2cbac;}</style><linearGradient id="linear-gradient" x1="5.64" y1="6.49" x2="10.37" y2="6.49" gradientUnits="userSpaceOnUse"><stop offset="0" stop-color="#876226"/><stop offset="0.01" stop-color="#8a6628"/><stop offset="0.21" stop-color="#b69542"/><stop offset="0.38" stop-color="#d5b754"/><stop offset="0.52" stop-color="#e8cc60"/><stop offset="0.62" stop-color="#efd464"/><stop offset="0.64" stop-color="#f2da6c"/><stop offset="0.7" stop-color="#f8e881"/><stop offset="0.76" stop-color="#fcf08e"/><stop offset="0.82" stop-color="#fdf392"/><stop offset="0.86" stop-color="#fbf08d"/><stop offset="0.91" stop-color="#f7e680"/><stop offset="0.96" stop-color="#f0d76a"/><stop offset="1" stop-color="#e8c753"/></linearGradient><linearGradient id="linear-gradient-2" x1="5.63" y1="4.01" x2="10.33" y2="4.01" xlink:href="#linear-gradient"/></defs><rect class="cls-1" width="16" height="16"/><path class="cls-2" d="M10.36,5.91a.22.22,0,0,0,0-.08s0,0,0,0v0s0,0,0,0,0-.07,0-.1l0-.08-.06-.16s-.05-.09-.07-.14l-.07-.09A.58.58,0,0,0,10,5l-.12-.12,0,0,0,0-.08,0-.08,0-.1,0,0,0H9.45l-.09,0H9a.41.41,0,0,0-.11,0H8.73l-.1,0-.1,0-.16.08-.1.07a.58.58,0,0,0-.12.1l-.58.57a.08.08,0,0,0,0,0,.1.1,0,0,0,0,.09.18.18,0,0,0,.07,0l.07,0h.1a.45.45,0,0,0,.11,0A.47.47,0,0,0,8,5.61l.35-.35h0l0,0s.05,0,.07,0a.09.09,0,0,1,0,.11s0,0,0,0l0,0L8,5.92c-.18.17-.34.35-.52.51l-.08.09-.06.05-.11.12h0l-.13-.12c.15-.15.29-.28.43-.43l.21-.21,0,0h0l-.07,0a.24.24,0,0,1-.1,0,.16.16,0,0,1-.08-.06.13.13,0,0,1-.06-.07.25.25,0,0,1,0-.11v0a.17.17,0,0,1,0-.1.41.41,0,0,1,.07-.11l.18-.17L7.81,5l0,0s0,0,0,0a.27.27,0,0,0-.08-.07l0,0-.13-.07L7.45,4.7a.05.05,0,0,1,0,0l-.12,0-.06,0H6.88a.27.27,0,0,0-.09,0H6.64l-.1,0,0,0-.09,0a.26.26,0,0,0-.09,0l-.08,0-.07,0a.81.81,0,0,0-.1.09l-.1.1-.07.09a.25.25,0,0,0,0,.07l0,.06a.41.41,0,0,0,0,.09l0,.1s0,.08,0,.13a.29.29,0,0,1,0,.09v0a0,0,0,0,0,0,0s0,0,0,0a.13.13,0,0,1,0,.06v.07a.22.22,0,0,0,0,.08V6s0,0,0,0,0,0,0,0,0,0,0,0,0,0,0,0,0,0,0,0a.24.24,0,0,1,0,.08l0,.07,0,.07a.83.83,0,0,0,.07.13l.06.1L6,6.8l.36.36.35.35.75.76,0,0a.13.13,0,0,0,.08,0h.06l.06,0,0-.05a.13.13,0,0,0,0-.1s0,0,0-.05a.2.2,0,0,0,0-.08l-.3-.31L6.72,7a.11.11,0,0,1,0-.12l0,0a.06.06,0,0,1,.07,0l.06,0,1,1h0l0,0A.21.21,0,0,0,8,8a.19.19,0,0,0,.09,0l1-1h0s0,0,.06,0a.09.09,0,0,1,.07,0,.09.09,0,0,1,0,.06.06.06,0,0,1,0,.07l-1,1a.18.18,0,0,0,0,.07.09.09,0,0,0,0,.07v.05a.17.17,0,0,0,0,0l0,.06a.14.14,0,0,0,.1,0s0,0,.06,0l.08,0,1.2-1.2c.13-.13.26-.26.38-.4l0,0a.22.22,0,0,0,.05-.08l.05-.07,0-.11,0-.07a.31.31,0,0,0,0-.08l0,0s0-.05,0-.08,0,0,0,0V6A.22.22,0,0,0,10.36,5.91ZM7.47,7h0l.86-.86,0,0h.05l.06,0,0,0a.08.08,0,0,1,0,.09l0,0-.87.87Zm1.42-.34h0L8,7.5l-.13-.13h0l.87-.88a.09.09,0,0,1,.13,0l0,0A.1.1,0,0,1,8.89,6.62Z"/><path class="cls-3" d="M5.74,4.59h.12l.09,0,.07,0,.06,0,.07,0,.1,0,.06,0,.15-.06.07,0,.1,0,.08,0h.06a.61.61,0,0,1,.13,0H8.55s.06,0,.08,0h.25s0,0,0,0H9l.09,0h.07l.08,0h.06l.06,0,.13,0,.08,0,.11,0,.11,0h0l.07,0,.13,0c.09,0,.07,0,.13,0l.06,0a.1.1,0,0,0,.06,0s0-.06,0-.09v0a.07.07,0,0,0,0,0,.14.14,0,0,0-.08-.09l-.07,0-.08,0-.11,0-.11,0,0,0-.08,0-.08,0L9.58,4,9.51,4,9.43,4l-.11,0-.18-.07L9,3.81l-.09,0-.1,0-.06,0-.08,0-.12,0-.09,0-.09,0-.09,0-.14,0-.08,0L8,3.43H7.9l-.09,0-.07,0-.09,0-.07,0-.1,0-.09,0a1.15,1.15,0,0,1-.17.06.2.2,0,0,1-.08,0l-.08,0L7,3.78a.32.32,0,0,1-.09,0s-.1,0-.15.07l-.08,0-.08,0V3.56H6.06v.56s0,0,0,0l0,0-.12,0-.1,0a.27.27,0,0,0-.1.06.18.18,0,0,0,0,.09.17.17,0,0,0,.05.15A.1.1,0,0,0,5.74,4.59Z"/><path class="cls-4" d="M.64,9.6H.83V10h.33V9.6h.19v1H1.16v-.43H.83v.43H.64Z"/><path class="cls-4" d="M2.28,10.27H1.69a.19.19,0,0,0,.07.12.22.22,0,0,0,.14,0,.29.29,0,0,0,.18-.07l.15.07a.41.41,0,0,1-.14.12.36.36,0,0,1-.19,0,.37.37,0,0,1-.27-.11.33.33,0,0,1-.11-.27.36.36,0,0,1,.37-.38.34.34,0,0,1,.28.11.38.38,0,0,1,.11.28Zm-.18-.14A.26.26,0,0,0,2,10a.23.23,0,0,0-.26,0,.2.2,0,0,0-.07.1Z"/><path class="cls-4" d="M3,9.85h.18v.73H3V10.5a.28.28,0,0,1-.11.08l-.11,0a.34.34,0,0,1-.25-.11.41.41,0,0,1-.1-.27.43.43,0,0,1,.1-.28.33.33,0,0,1,.24-.1.27.27,0,0,1,.13,0l.1.07ZM2.77,10a.18.18,0,0,0-.14.06.21.21,0,0,0-.06.16.2.2,0,0,0,.06.15.19.19,0,0,0,.28,0A.2.2,0,0,0,3,10.22a.21.21,0,0,0-.06-.16A.18.18,0,0,0,2.77,10Z"/><path class="cls-4" d="M3.28,9.85h.16V10a.22.22,0,0,1,.07-.09.15.15,0,0,1,.09,0h.07l0,.16-.06,0a.1.1,0,0,0-.07.06.43.43,0,0,0,0,.2v.33H3.28Z"/><path class="cls-4" d="M3.79,9.59H4v.26h.11V10H4v.57H3.79V10h-.1V9.85h.1Z"/><path class="cls-4" d="M5.09,9.85h.18v.73H5.09V10.5a.38.38,0,0,1-.11.08l-.11,0a.34.34,0,0,1-.25-.11.41.41,0,0,1-.1-.27.39.39,0,0,1,.1-.28.33.33,0,0,1,.24-.1.22.22,0,0,1,.12,0,.41.41,0,0,1,.11.07ZM4.9,10a.18.18,0,0,0-.14.06.21.21,0,0,0-.06.16.2.2,0,0,0,.06.15.19.19,0,0,0,.28,0,.2.2,0,0,0,.06-.15A.21.21,0,0,0,5,10.06.18.18,0,0,0,4.9,10Z"/><path class="cls-4" d="M5.46,9.85h.18v.08a.28.28,0,0,1,.11-.07.18.18,0,0,1,.1,0A.26.26,0,0,1,6,9.91a.27.27,0,0,1,.06.19v.48H5.92v-.32a.72.72,0,0,0,0-.17.16.16,0,0,0,0-.07L5.8,10a.13.13,0,0,0-.1,0,.16.16,0,0,0,0,.1.5.5,0,0,0,0,.15v.29H5.46Z"/><path class="cls-4" d="M6.81,9.57H7v1H6.81V10.5a.38.38,0,0,1-.11.08l-.11,0a.34.34,0,0,1-.25-.11.41.41,0,0,1-.1-.27.39.39,0,0,1,.1-.28.33.33,0,0,1,.24-.1.22.22,0,0,1,.12,0,.41.41,0,0,1,.11.07ZM6.62,10a.18.18,0,0,0-.14.06.21.21,0,0,0-.06.16.2.2,0,0,0,.06.15.19.19,0,0,0,.28,0,.2.2,0,0,0,.06-.15.21.21,0,0,0-.06-.16A.18.18,0,0,0,6.62,10Z"/><path class="cls-4" d="M7.58,9.6h.19V10h.32V9.6h.19v1H8.09v-.43H7.77v.43H7.58Z"/><path class="cls-4" d="M9,9.85H9.2v.73H9V10.5a.35.35,0,0,1-.1.08l-.12,0a.32.32,0,0,1-.24-.11.37.37,0,0,1-.11-.27.43.43,0,0,1,.1-.28.33.33,0,0,1,.24-.1.27.27,0,0,1,.13,0l.1.07ZM8.83,10a.18.18,0,0,0-.14.06.21.21,0,0,0-.06.16.2.2,0,0,0,.06.15.2.2,0,0,0,.14.06A.17.17,0,0,0,9,10.37.2.2,0,0,0,9,10.22.21.21,0,0,0,9,10.06.17.17,0,0,0,8.83,10Z"/><path class="cls-4" d="M9.31,9.85H9.5l.18.43.18-.43h.19l-.31.73H9.62Z"/><path class="cls-4" d="M10.88,10.27h-.59a.21.21,0,0,0,.21.17.29.29,0,0,0,.18-.07l.15.07a.41.41,0,0,1-.14.12.36.36,0,0,1-.19,0,.37.37,0,0,1-.27-.11.39.39,0,0,1,0-.54.33.33,0,0,1,.26-.11.34.34,0,0,1,.28.11.38.38,0,0,1,.11.28Zm-.18-.14a.18.18,0,0,0-.07-.1.23.23,0,0,0-.26,0,.29.29,0,0,0-.07.1Z"/><path class="cls-4" d="M11,9.85h.18v.08a.28.28,0,0,1,.11-.07.18.18,0,0,1,.1,0,.25.25,0,0,1,.19.07.27.27,0,0,1,.06.19v.48h-.18v-.32a.72.72,0,0,0,0-.17.16.16,0,0,0,0-.07l-.07,0a.13.13,0,0,0-.1,0,.23.23,0,0,0,0,.1.5.5,0,0,0,0,.15v.29H11Z"/><path class="cls-4" d="M13.15,9.77,13,9.9a.4.4,0,0,0-.3-.15.37.37,0,0,0-.24.1.32.32,0,0,0-.09.24.33.33,0,0,0,0,.17.34.34,0,0,0,.12.12.33.33,0,0,0,.17,0,.33.33,0,0,0,.15,0,.44.44,0,0,0,.15-.11l.13.14a.69.69,0,0,1-.21.14.6.6,0,0,1-.6-.1.53.53,0,0,1-.14-.37.44.44,0,0,1,.07-.26.44.44,0,0,1,.19-.19.59.59,0,0,1,.26-.07.53.53,0,0,1,.24.06A.62.62,0,0,1,13.15,9.77Z"/><path class="cls-4" d="M13.83,9.85H14v.73h-.18V10.5a.38.38,0,0,1-.11.08l-.12,0a.34.34,0,0,1-.24-.11.36.36,0,0,1-.1-.27.39.39,0,0,1,.1-.28.3.3,0,0,1,.24-.1.25.25,0,0,1,.12,0,.41.41,0,0,1,.11.07Zm-.19.15a.17.17,0,0,0-.14.06.21.21,0,0,0-.06.16.2.2,0,0,0,.06.15.18.18,0,0,0,.14.06.2.2,0,0,0,.14-.06.2.2,0,0,0,.06-.15.21.21,0,0,0-.06-.16A.2.2,0,0,0,13.64,10Z"/><path class="cls-4" d="M14.15,9.85h.16V10a.2.2,0,0,1,.06-.09.16.16,0,0,1,.1,0h.07l-.06.16-.05,0s0,0-.07.06a.43.43,0,0,0,0,.2v.33h-.18Z"/><path class="cls-4" d="M15.36,10.27h-.59a.19.19,0,0,0,.07.12.22.22,0,0,0,.14,0,.29.29,0,0,0,.18-.07l.15.07a.53.53,0,0,1-.14.12.38.38,0,0,1-.19,0,.41.41,0,0,1-.28-.11.41.41,0,0,1,0-.54A.33.33,0,0,1,15,9.84a.34.34,0,0,1,.28.11.38.38,0,0,1,.11.28Zm-.19-.14a.14.14,0,0,0-.07-.1A.16.16,0,0,0,15,10a.2.2,0,0,0-.13,0,.2.2,0,0,0-.07.1Z"/><path class="cls-4" d="M3.47,11.15H3.42l0,0,0,0s0,0,0,.06a.35.35,0,0,0,0,.06l0,.05,0,0h.14v.06H3.38l-.06,0,0-.06s0-.05,0-.08,0-.06,0-.08a.43.43,0,0,1,0-.07l.07,0,.08,0h.08v.06H3.47Z"/><path class="cls-4" d="M4,11.38H3.84l0,.1H3.72l.16-.38h.06l.15.38H4Zm-.07-.19,0,.1v0H4l0,0a.62.62,0,0,1,0-.1Z"/><path class="cls-4" d="M4.56,11.22a.14.14,0,0,1,0,.06l-.07,0h0l.11.15H4.5l-.11-.15h0v.15H4.28V11.1h.21a.1.1,0,0,1,0,0A.14.14,0,0,1,4.56,11.22Zm-.18.06h.07l0,0s0,0,0,0a0,0,0,0,0,0,0l0,0H4.35v.12Z"/><path class="cls-4" d="M4.77,11.48V11.1h.07v.38Z"/><path class="cls-4" d="M5.27,11.28l.06.1h0V11.1H5.4v.38H5.33l-.13-.17-.07-.11h0a.49.49,0,0,1,0,.11v.17H5.07V11.1h.07Z"/><path class="cls-4" d="M5.86,11.34H5.77v-.06h.16v.19H5.72l-.06,0,0-.06a.22.22,0,0,1,0-.08v-.06s0,0,0-.05l0,0,0,0,0,0h.16v.06H5.77l0,0,0,0a.13.13,0,0,0,0,.06.18.18,0,0,0,0,.11.17.17,0,0,0,.1,0h.05Z"/><path class="cls-4" d="M6.47,11.48H6.4V11.1h.24v.06H6.47v.1h.15v.06H6.47Z"/><path class="cls-4" d="M7.12,11.22a.09.09,0,0,1,0,.06.09.09,0,0,1-.06,0H7l.11.15H7.06L7,11.33h0v.15H6.83V11.1h.22a.1.1,0,0,1,0,0A.14.14,0,0,1,7.12,11.22Zm-.18.06H7l0,0v-.06l0,0H6.9v.12Z"/><path class="cls-4" d="M7.69,11.29a.19.19,0,0,1,0,.08.09.09,0,0,1,0,.06l-.06,0-.08,0-.08,0-.06,0a.16.16,0,0,1,0-.06.19.19,0,0,1,0-.08.24.24,0,0,1,0-.08l0-.06.06,0,.08,0,.08,0,.06,0s0,0,0,.06A.24.24,0,0,1,7.69,11.29Zm-.08,0v-.06l0,0,0,0h-.1l0,0a.05.05,0,0,0,0,0,.18.18,0,0,0,0,.12s0,0,0,.05l0,0h.1l0,0,0-.05Z"/><path class="cls-4" d="M8.09,11.38l0-.1.06-.18h.1v.38H8.21v-.19a.38.38,0,0,1,0-.1h0v.08l-.08.21h0L8,11.27l0,0v0H8v.29H7.89V11.1H8l.07.18,0,.1Z"/><path class="cls-4" d="M8.87,11.48H8.8v-.32H8.68V11.1H9v.06H8.87Z"/><path class="cls-4" d="M9.25,11.26h.18V11.1H9.5v.38H9.43v-.16H9.25v.16H9.18V11.1h.07Z"/><path class="cls-4" d="M9.79,11.42H10v.06H9.72V11.1H10v.06H9.79v.1h.15v.06H9.79Z"/><path class="cls-4" d="M10.5,11.26h.18V11.1h.07v.38h-.07v-.16H10.5v.16h-.06V11.1h.06Z"/><path class="cls-4" d="M11,11.42h.19v.06H11V11.1h.25v.06H11v.1h.16v.06H11Z"/><path class="cls-4" d="M11.66,11.38h-.15l0,.1H11.4l.15-.38h.07l.15.38h-.08Zm-.08-.19a.62.62,0,0,1,0,.1l0,0h.1v0l0-.1Z"/><path class="cls-4" d="M12.23,11.22a.07.07,0,0,1,0,.06s0,0-.07,0h0l.12.15h-.09l-.1-.15H12v.15H12V11.1h.21l.06,0A.15.15,0,0,1,12.23,11.22Zm-.17.06h.07l0,0s0,0,0,0v0l0,0H12v.12Z"/><path class="cls-4" d="M12.61,11.48h-.07v-.32h-.13V11.1h.32v.06h-.12Z"/></svg>