<svg id="Layer_1" data-name="Layer 1" xmlns="http://www.w3.org/2000/svg" xmlns:xlink="http://www.w3.org/1999/xlink" viewBox="0 0 128 128"><defs><style>.cls-1{fill:#622c84;}.cls-2{fill:url(#linear-gradient);}.cls-3{fill:url(#linear-gradient-2);}.cls-4{fill:#e2cbac;}</style><linearGradient id="linear-gradient" x1="45.12" y1="51.9" x2="82.92" y2="51.9" gradientUnits="userSpaceOnUse"><stop offset="0" stop-color="#876226"/><stop offset="0.01" stop-color="#8a6628"/><stop offset="0.21" stop-color="#b69542"/><stop offset="0.38" stop-color="#d5b754"/><stop offset="0.52" stop-color="#e8cc60"/><stop offset="0.62" stop-color="#efd464"/><stop offset="0.64" stop-color="#f2da6c"/><stop offset="0.7" stop-color="#f8e881"/><stop offset="0.76" stop-color="#fcf08e"/><stop offset="0.82" stop-color="#fdf392"/><stop offset="0.86" stop-color="#fbf08d"/><stop offset="0.91" stop-color="#f7e680"/><stop offset="0.96" stop-color="#f0d76a"/><stop offset="1" stop-color="#e8c753"/></linearGradient><linearGradient id="linear-gradient-2" x1="45.08" y1="32.09" x2="82.68" y2="32.09" xlink:href="#linear-gradient"/></defs><rect class="cls-1" width="128" height="128"/><path class="cls-2" d="M82.91,47.28a1.85,1.85,0,0,0,0-.62.51.51,0,0,1,0-.3c0-.11-.07-.19-.06-.29a.37.37,0,0,0,0-.29,3.73,3.73,0,0,0-.15-.81c0-.22-.09-.43-.15-.64-.14-.43-.29-.86-.47-1.27a10.45,10.45,0,0,0-.58-1.1,8.23,8.23,0,0,0-.53-.78,10,10,0,0,0-.77-1c-.33-.33-.64-.66-1-1l-.29-.22-.29-.21a4.66,4.66,0,0,0-.63-.43c-.21-.12-.42-.26-.64-.37s-.53-.25-.79-.38a1.25,1.25,0,0,0-.3-.12c-.11,0-.19-.11-.31-.12s-.16-.07-.24-.08c-.27-.05-.53-.15-.79-.22-.08,0-.17,0-.26,0a2.47,2.47,0,0,0-.47-.11c-.08,0-.18,0-.25,0a.37.37,0,0,0-.23,0c-.08,0-.16,0-.24,0l-.71,0a1.63,1.63,0,0,0-.76,0c-.3,0-.6,0-.9,0-.14,0-.26.08-.4.05s-.19,0-.26.06-.17,0-.26.06a.66.66,0,0,1-.25.07c-.27.05-.52.15-.78.22s-.57.22-.86.33a8.55,8.55,0,0,0-1.28.65,6.92,6.92,0,0,0-.8.53,8.31,8.31,0,0,0-1,.8c-1.54,1.52-3.06,3-4.59,4.58a.94.94,0,0,0-.2.29.66.66,0,0,0,0,.7,1.64,1.64,0,0,0,.5.44,2,2,0,0,0,.58.18,2.06,2.06,0,0,0,.43,0,.7.7,0,0,0,.4,0,2.35,2.35,0,0,0,.82-.24,3.32,3.32,0,0,0,1-.71l2.77-2.77A.94.94,0,0,1,67,42a.67.67,0,0,1,.39-.18c.2,0,.43-.07.59.12a.7.7,0,0,1,.28.87s0,.1,0,.13-.17.23-.28.33c-1.37,1.37-2.73,2.74-4.1,4.1s-2.71,2.75-4.11,4.07c-.23.22-.43.47-.66.7s-.35.24-.44.44l-.94.94c-.06.06-.11.06-.18,0l-1-1c1.12-1.17,2.3-2.27,3.39-3.44.55-.59,1.13-1.14,1.7-1.71l.15-.15a.89.89,0,0,1-.21-.06,2.17,2.17,0,0,1-.56-.13,6.22,6.22,0,0,1-.83-.38,3.9,3.9,0,0,1-.65-.48,2.44,2.44,0,0,1-.49-.62,2.32,2.32,0,0,1-.29-.9V44.4a1.71,1.71,0,0,1,.21-.83,2.78,2.78,0,0,1,.58-.82c.48-.46.93-1,1.43-1.39s.94-1,1.46-1.42a3,3,0,0,0,.31-.3c0-.11-.1-.07-.14-.13A7,7,0,0,0,62,39a1.57,1.57,0,0,0-.25-.2c-.33-.21-.66-.42-1-.61s-.77-.38-1.16-.56c-.11,0-.2-.08-.31-.11-.31-.09-.61-.22-.93-.29a5.29,5.29,0,0,0-.54-.13,1.75,1.75,0,0,1-.33-.06,1.93,1.93,0,0,1-.27,0,.61.61,0,0,0-.26,0c-.1,0-.18,0-.27,0a1.4,1.4,0,0,1-.54,0,4.77,4.77,0,0,0-1.07,0c-.25,0-.49,0-.73,0s-.3.08-.46.05-.18,0-.25.06-.18,0-.26.06-.17,0-.26.07l-.78.22c-.14,0-.27.11-.41.15a7.19,7.19,0,0,0-.76.32,6.61,6.61,0,0,0-.7.36c-.2.13-.41.24-.6.37l-.55.4a6.66,6.66,0,0,0-.82.69c-.26.27-.54.53-.79.82s-.41.49-.59.75a4.65,4.65,0,0,0-.34.52,3.58,3.58,0,0,1-.3.49,3.63,3.63,0,0,0-.38.73c-.12.27-.22.54-.32.82a8.51,8.51,0,0,0-.3,1,2.63,2.63,0,0,0-.15.74c-.08.08,0,.18,0,.26a.43.43,0,0,0,0,.27c0,.1,0,.17,0,.26a2.81,2.81,0,0,1,0,.5,2.32,2.32,0,0,0,0,.59,1.83,1.83,0,0,0,0,.57.81.81,0,0,1,0,.38c0,.12.08.23.06.35s.08.3,0,.46,0,.18.07.25,0,.21.07.28,0,.17.06.26a6.09,6.09,0,0,0,.17.61c0,.19.13.37.19.56a5.25,5.25,0,0,0,.22.55,8.49,8.49,0,0,0,.56,1.08c.17.27.34.54.54.8a7.86,7.86,0,0,0,.73.89c.92,1,1.87,1.88,2.81,2.83s1.91,1.85,2.8,2.84l6,6a1.12,1.12,0,0,0,.26.22,1.3,1.3,0,0,0,.63.23.23.23,0,0,1,.11,0,.22.22,0,0,0,.22,0,.2.2,0,0,1,.13,0,1.65,1.65,0,0,0,.5-.17A1.73,1.73,0,0,0,61.8,66a1.56,1.56,0,0,0,.31-.82,1.46,1.46,0,0,0,0-.41,1.4,1.4,0,0,0-.33-.64L59.32,61.7c-1.83-1.86-3.68-3.7-5.53-5.54a.82.82,0,0,1-.12-.95.85.85,0,0,1,.24-.26.64.64,0,0,1,.6-.09,1.16,1.16,0,0,1,.43.27l8,8a.34.34,0,0,0,.09.08,1.46,1.46,0,0,0,.41.25,1.25,1.25,0,0,0,.86.06,1.34,1.34,0,0,0,.74-.39l8-8,.1-.1a.88.88,0,0,1,.46-.21.83.83,0,0,1,.61.24.79.79,0,0,1,.24.47.66.66,0,0,1-.21.57l-8.13,8.12a3.32,3.32,0,0,0-.44.55.88.88,0,0,0-.18.54c0,.13,0,.27,0,.4a2.26,2.26,0,0,0,.11.43,1.68,1.68,0,0,0,.41.51,1.64,1.64,0,0,0,.83.34,1.05,1.05,0,0,0,.43,0,1.44,1.44,0,0,0,.66-.34c3.2-3.21,6.41-6.4,9.6-9.61,1-1,2.12-2,3.06-3.14.09-.11.15-.23.23-.33a4.38,4.38,0,0,0,.43-.63c.13-.2.26-.41.37-.62s.26-.55.39-.83.15-.38.22-.57a5.05,5.05,0,0,0,.22-.69,1.82,1.82,0,0,0,.11-.4,2.43,2.43,0,0,0,.1-.59c.08-.08,0-.19,0-.27a.39.39,0,0,0,0-.26c0-.1,0-.17,0-.26a2.92,2.92,0,0,1,0-.51A2.65,2.65,0,0,0,82.91,47.28ZM59.75,55.71s.06-.06.09-.09l6.89-6.89a1.78,1.78,0,0,1,.27-.21.23.23,0,0,1,.19-.06.5.5,0,0,0,.21,0,.53.53,0,0,1,.42.18.9.9,0,0,1,.19.2.75.75,0,0,1,0,.79,1,1,0,0,1-.18.23l-7,7Zm11.36-2.78L71,53l-7,7L63,59c0-.06,0-.08.07-.11l7-7a.69.69,0,0,1,1,0,1,1,0,0,1,.25.37A.73.73,0,0,1,71.11,52.93Z"/><path class="cls-3" d="M46,36.71a.79.79,0,0,0,.43.11h.33l.13,0,.78-.3c.17-.06.34-.14.53-.2a4.71,4.71,0,0,0,.52-.21l.53-.21.77-.29c.19-.07.36-.16.55-.22.4-.15.8-.31,1.19-.48a3.42,3.42,0,0,1,.54-.18c.28-.07.54-.17.82-.23s.41-.13.62-.16a4.1,4.1,0,0,0,.48-.1,8.65,8.65,0,0,1,1-.22,2.84,2.84,0,0,0,.31-.06,3.5,3.5,0,0,1,.63-.12l.43-.07a5.62,5.62,0,0,0,.57-.09c.13,0,.26,0,.38,0a.4.4,0,0,1,.24,0c.09,0,.15-.07.24-.06s.44-.07.67,0h0a.38.38,0,0,1,.31,0,1.54,1.54,0,0,0,.31-.05,2.09,2.09,0,0,0,.43,0c.18,0,.38,0,.57,0s.49,0,.74,0a3.08,3.08,0,0,1,.68,0c.23,0,.45-.06.69,0h2c.22,0,.44,0,.66,0s.43,0,.64,0a2.88,2.88,0,0,1,.83.05c.36,0,.72,0,1.09,0a.37.37,0,0,1,.21,0,.42.42,0,0,0,.29,0c.11,0,.2.07.31.05s.42.08.64,0h0a.37.37,0,0,0,.29,0c.1,0,.19.06.29.05s.32.08.5,0,.21,0,.3,0a1,1,0,0,0,.34,0h0c.06.08.14,0,.21,0s.15.08.24,0,.14.05.22.05a2.43,2.43,0,0,1,.53.08l.76.15.5.11c.23.05.46.11.68.18a4.43,4.43,0,0,1,.49.13l.5.14A8,8,0,0,1,76,35c.23.08.46.15.68.25s.57.21.85.32.6.23.89.37a.51.51,0,0,0,.28.07s.07,0,.1,0a4.48,4.48,0,0,0,.62.2,8,8,0,0,0,1,.4c.73.26.58.21,1,.22a1.17,1.17,0,0,0,.53-.15,1.3,1.3,0,0,0,.48-.42,1.13,1.13,0,0,0,.27-.76,1.62,1.62,0,0,1,0-.22.78.78,0,0,0-.09-.4,1.28,1.28,0,0,0-.63-.68c-.2-.1-.41-.17-.62-.25l-.6-.22-.89-.34L79,33.06c-.15-.05-.3-.12-.45-.16s-.38-.14-.57-.21l-.7-.26-.63-.24L76.12,32c-.24-.07-.47-.16-.7-.25l-.89-.35-1.38-.5c-.38-.13-.76-.29-1.14-.43l-.75-.28-.78-.29c-.14-.06-.3-.11-.45-.16l-.7-.26c-.32-.12-.63-.24-1-.35l-.67-.25c-.24-.09-.48-.17-.71-.27a6.56,6.56,0,0,1-.71-.28c-.39-.09-.73-.3-1.12-.38a3.67,3.67,0,0,0-.65-.26c-.21-.09-.44-.15-.65-.24a1.06,1.06,0,0,0-.63-.06,4.13,4.13,0,0,0-.75.25,3.77,3.77,0,0,1-.52.21l-.78.3-.54.22c-.26.1-.52.19-.77.3s-.51.22-.77.31c-.44.14-.85.37-1.31.48a4,4,0,0,1-.64.28c-.22.09-.46.16-.67.25s-.43.19-.65.26a4.28,4.28,0,0,1-.68.25c-.39.21-.82.31-1.22.5a3.51,3.51,0,0,1-.61.24c-.22.07-.41.18-.65.24v-3H48.48v4.46c0,.16,0,.23-.18.27s-.2.09-.3.12c-.33.11-.64.25-1,.38s-.52.18-.77.29a2.09,2.09,0,0,0-.82.49,1.39,1.39,0,0,0-.36.75,1.36,1.36,0,0,0,.4,1.17A1.55,1.55,0,0,0,46,36.71Z"/><path class="cls-4" d="M5.14,76.79H6.65v3H9.27v-3h1.51v7.85H9.27V81.2H6.65v3.44H5.14Z"/><path class="cls-4" d="M18.23,82.16H13.55a1.57,1.57,0,0,0,.54,1,1.71,1.71,0,0,0,1.12.36,2,2,0,0,0,1.41-.57l1.22.58a2.87,2.87,0,0,1-1.1,1,3.38,3.38,0,0,1-1.52.31A3,3,0,0,1,13,83.92a2.92,2.92,0,0,1-.86-2.15A3,3,0,0,1,13,79.56a2.88,2.88,0,0,1,2.14-.88,3,3,0,0,1,2.23.88,3.16,3.16,0,0,1,.86,2.32ZM16.77,81a1.5,1.5,0,0,0-.57-.79,1.65,1.65,0,0,0-1-.3,1.71,1.71,0,0,0-1.07.34,2,2,0,0,0-.54.75Z"/><path class="cls-4" d="M23.69,78.83h1.45v5.81H23.69V84a2.94,2.94,0,0,1-.86.59,2.33,2.33,0,0,1-.93.17A2.58,2.58,0,0,1,20,83.91a3,3,0,0,1-.82-2.16,3.14,3.14,0,0,1,.79-2.21,2.54,2.54,0,0,1,1.93-.86,2.49,2.49,0,0,1,1,.2,2.66,2.66,0,0,1,.85.59ZM22.16,80a1.45,1.45,0,0,0-1.12.48,1.69,1.69,0,0,0-.45,1.22A1.77,1.77,0,0,0,21,83a1.57,1.57,0,0,0,2.26,0,1.73,1.73,0,0,0,.45-1.25,1.69,1.69,0,0,0-.45-1.22A1.49,1.49,0,0,0,22.16,80Z"/><path class="cls-4" d="M26.27,78.83h1.25v.73a1.67,1.67,0,0,1,.54-.65,1.3,1.3,0,0,1,.74-.23,1.39,1.39,0,0,1,.59.15l-.46,1.26a.94.94,0,0,0-.42-.13.66.66,0,0,0-.56.41A3.74,3.74,0,0,0,27.71,82v2.63H26.27Z"/><path class="cls-4" d="M30.28,76.69h1.46v2.14h.86v1.26h-.86v4.55H30.28V80.09h-.74V78.83h.74Z"/><path class="cls-4" d="M40.72,78.83h1.46v5.81H40.72V84a2.82,2.82,0,0,1-.86.59,2.32,2.32,0,0,1-.92.17A2.6,2.6,0,0,1,37,83.91a3,3,0,0,1-.82-2.16A3.18,3.18,0,0,1,37,79.54a2.55,2.55,0,0,1,1.93-.86,2.45,2.45,0,0,1,1,.2,2.66,2.66,0,0,1,.85.59ZM39.19,80a1.47,1.47,0,0,0-1.12.48,1.69,1.69,0,0,0-.45,1.22A1.73,1.73,0,0,0,38.08,83a1.46,1.46,0,0,0,1.11.48A1.5,1.5,0,0,0,40.33,83a1.73,1.73,0,0,0,.45-1.25,1.69,1.69,0,0,0-.45-1.22A1.49,1.49,0,0,0,39.19,80Z"/><path class="cls-4" d="M43.65,78.83H45.1v.6a3.45,3.45,0,0,1,.9-.58,2.15,2.15,0,0,1,.82-.17,2,2,0,0,1,1.47.61,2,2,0,0,1,.5,1.51v3.84H47.35V82.09a6.5,6.5,0,0,0-.09-1.37.91.91,0,0,0-.32-.52.93.93,0,0,0-.58-.18,1.08,1.08,0,0,0-.75.29,1.59,1.59,0,0,0-.44.82,5.74,5.74,0,0,0-.07,1.18v2.33H43.65Z"/><path class="cls-4" d="M54.48,76.59h1.46v8H54.48V84a2.91,2.91,0,0,1-.85.59,2.4,2.4,0,0,1-.93.17,2.56,2.56,0,0,1-1.94-.87,3,3,0,0,1-.83-2.16,3.14,3.14,0,0,1,.8-2.21,2.57,2.57,0,0,1,2.91-.66,2.74,2.74,0,0,1,.84.59ZM53,80a1.47,1.47,0,0,0-1.12.48,1.68,1.68,0,0,0-.44,1.22A1.77,1.77,0,0,0,51.84,83a1.48,1.48,0,0,0,1.12.48A1.51,1.51,0,0,0,54.1,83a1.73,1.73,0,0,0,.45-1.25,1.69,1.69,0,0,0-.45-1.22A1.52,1.52,0,0,0,53,80Z"/><path class="cls-4" d="M60.62,76.79h1.52v3h2.61v-3h1.51v7.85H64.75V81.2H62.14v3.44H60.62Z"/><path class="cls-4" d="M72.18,78.83h1.45v5.81H72.18V84a2.94,2.94,0,0,1-.86.59,2.33,2.33,0,0,1-.93.17,2.58,2.58,0,0,1-1.94-.87,3,3,0,0,1-.82-2.16,3.14,3.14,0,0,1,.79-2.21,2.54,2.54,0,0,1,1.93-.86,2.45,2.45,0,0,1,1,.2,2.66,2.66,0,0,1,.85.59ZM70.65,80a1.45,1.45,0,0,0-1.12.48,1.69,1.69,0,0,0-.45,1.22A1.77,1.77,0,0,0,69.53,83a1.57,1.57,0,0,0,2.26,0,1.73,1.73,0,0,0,.45-1.25,1.69,1.69,0,0,0-.45-1.22A1.49,1.49,0,0,0,70.65,80Z"/><path class="cls-4" d="M74.48,78.83H76l1.46,3.43,1.47-3.43h1.47L77.9,84.64H77Z"/><path class="cls-4" d="M87,82.16H82.36a1.57,1.57,0,0,0,.54,1A1.71,1.71,0,0,0,84,83.5a1.92,1.92,0,0,0,1.4-.57l1.23.58a2.87,2.87,0,0,1-1.1,1,3.38,3.38,0,0,1-1.52.31,3,3,0,0,1-2.22-.86A2.92,2.92,0,0,1,81,81.77a3,3,0,0,1,.86-2.21A2.88,2.88,0,0,1,84,78.68a3,3,0,0,1,2.23.88A3.2,3.2,0,0,1,87,81.88ZM85.58,81a1.5,1.5,0,0,0-.57-.79,1.66,1.66,0,0,0-1-.3,1.7,1.7,0,0,0-1.06.34,1.86,1.86,0,0,0-.54.75Z"/><path class="cls-4" d="M88.21,78.83h1.46v.6a3.45,3.45,0,0,1,.9-.58,2.11,2.11,0,0,1,.82-.17,2,2,0,0,1,1.46.61,2,2,0,0,1,.51,1.51v3.84H91.92V82.09a6.5,6.5,0,0,0-.09-1.37.92.92,0,0,0-.33-.52.88.88,0,0,0-.57-.18,1.11,1.11,0,0,0-.76.29,1.59,1.59,0,0,0-.44.82,7,7,0,0,0-.06,1.18v2.33H88.21Z"/><path class="cls-4" d="M105.19,78.17l-1,1a3.21,3.21,0,0,0-2.4-1.13,2.63,2.63,0,0,0-2.66,2.66,2.79,2.79,0,0,0,.34,1.4,2.5,2.5,0,0,0,1,1,2.84,2.84,0,0,0,1.39.35,2.91,2.91,0,0,0,1.19-.24,4.54,4.54,0,0,0,1.18-.89l1,1.06a5.53,5.53,0,0,1-1.64,1.17,4.5,4.5,0,0,1-1.77.33,4,4,0,0,1-4.16-4.13,4.14,4.14,0,0,1,.53-2.09,4,4,0,0,1,1.52-1.46,4.29,4.29,0,0,1,2.13-.56,4.5,4.5,0,0,1,1.87.41A4.57,4.57,0,0,1,105.19,78.17Z"/><path class="cls-4" d="M110.62,78.83h1.46v5.81h-1.46V84a2.91,2.91,0,0,1-.85.59,2.4,2.4,0,0,1-.93.17,2.6,2.6,0,0,1-2-.87,3.06,3.06,0,0,1-.82-2.16,3.14,3.14,0,0,1,.8-2.21,2.53,2.53,0,0,1,1.92-.86,2.45,2.45,0,0,1,1,.2,2.66,2.66,0,0,1,.85.59ZM109.09,80a1.47,1.47,0,0,0-1.12.48,1.69,1.69,0,0,0-.45,1.22A1.73,1.73,0,0,0,108,83a1.47,1.47,0,0,0,1.12.48,1.49,1.49,0,0,0,1.13-.48,1.69,1.69,0,0,0,.46-1.25,1.65,1.65,0,0,0-.46-1.22A1.49,1.49,0,0,0,109.09,80Z"/><path class="cls-4" d="M113.21,78.83h1.25v.73a1.57,1.57,0,0,1,.53-.65,1.27,1.27,0,0,1,1.33-.08l-.45,1.26a.94.94,0,0,0-.42-.13.66.66,0,0,0-.57.41,4,4,0,0,0-.23,1.64v2.63h-1.44Z"/><path class="cls-4" d="M122.85,82.16h-4.67a1.57,1.57,0,0,0,.54,1,1.71,1.71,0,0,0,1.12.36,1.92,1.92,0,0,0,1.4-.57l1.23.58a2.87,2.87,0,0,1-1.1,1,3.38,3.38,0,0,1-1.52.31,3,3,0,0,1-2.22-.86,2.92,2.92,0,0,1-.86-2.15,3,3,0,0,1,.86-2.21,2.88,2.88,0,0,1,2.14-.88,3,3,0,0,1,2.23.88,3.2,3.2,0,0,1,.86,2.32ZM121.4,81a1.5,1.5,0,0,0-.57-.79,1.66,1.66,0,0,0-1-.3,1.7,1.7,0,0,0-1.06.34,1.86,1.86,0,0,0-.54.75Z"/><path class="cls-4" d="M27.79,89.22a1.16,1.16,0,0,0-.42.07,1,1,0,0,0-.33.22,1.28,1.28,0,0,0-.22.36,1.43,1.43,0,0,0-.07.48,1.33,1.33,0,0,0,.07.47.77.77,0,0,0,.2.34.85.85,0,0,0,.32.21,1.2,1.2,0,0,0,.44.07l.35,0a1.87,1.87,0,0,0,.34-.08v.48l-.35.08-.38,0a2,2,0,0,1-.68-.11,1.29,1.29,0,0,1-.49-.31,1.34,1.34,0,0,1-.3-.48,1.81,1.81,0,0,1-.1-.63,1.91,1.91,0,0,1,.11-.64,1.48,1.48,0,0,1,.3-.52,1.41,1.41,0,0,1,.5-.35,1.83,1.83,0,0,1,.68-.12l.37,0a1.41,1.41,0,0,1,.31.08v.47a2.73,2.73,0,0,0-.34-.08Z"/><path class="cls-4" d="M31.83,91.08H30.68l-.29.77h-.6l1.21-3h.51l1.21,3h-.59Zm-.58-1.54c-.1.32-.2.58-.28.8l-.1.27h.78l-.1-.27c-.08-.22-.18-.48-.29-.8Z"/><path class="cls-4" d="M36.47,89.72a.84.84,0,0,1-.18.54,1,1,0,0,1-.55.33h0l.91,1.25H36l-.83-1.18h-.38v1.18h-.56v-3h.93a2.77,2.77,0,0,1,.42,0,1.31,1.31,0,0,1,.34.08,1,1,0,0,1,.42.3A.85.85,0,0,1,36.47,89.72ZM35,90.21l.33,0a1,1,0,0,0,.22,0,.45.45,0,0,0,.24-.18.53.53,0,0,0,0-.47.36.36,0,0,0-.17-.15.93.93,0,0,0-.21,0l-.29,0h-.4v.94Z"/><path class="cls-4" d="M38.19,91.85v-3h.56v3Z"/><path class="cls-4" d="M42.12,90.22a8.42,8.42,0,0,1,.53.83h0c0-.39,0-.68,0-.86V88.8h.56v3h-.59l-1-1.4a7.87,7.87,0,0,1-.54-.85h0q0,.57,0,.87v1.38h-.56v-3h.59Z"/><path class="cls-4" d="M46.88,90.69h-.69v-.47h1.25v1.54l-.18,0-.24,0-.27,0h-.27a2.22,2.22,0,0,1-.72-.11,1.45,1.45,0,0,1-.51-.31,1.21,1.21,0,0,1-.31-.48,2,2,0,0,1-.1-.61A1.63,1.63,0,0,1,44.9,90a1.28,1.28,0,0,1,.15-.4,1.78,1.78,0,0,1,.59-.59,1.8,1.8,0,0,1,.91-.21,3.15,3.15,0,0,1,.44,0,1.9,1.9,0,0,1,.34.08v.47L47,89.25a2.31,2.31,0,0,0-.37,0,1.39,1.39,0,0,0-.46.07,1,1,0,0,0-.38.22,1.16,1.16,0,0,0-.25.36,1.22,1.22,0,0,0-.09.49,1.1,1.1,0,0,0,.28.81,1.12,1.12,0,0,0,.8.27h.2l.18,0Z"/><path class="cls-4" d="M51.74,91.85h-.56v-3h2v.47H51.74v.79h1.19v.47H51.74Z"/><path class="cls-4" d="M56.93,89.72a.84.84,0,0,1-.18.54,1,1,0,0,1-.55.33h0l.91,1.25h-.67l-.83-1.18h-.38v1.18h-.56v-3h.93a3,3,0,0,1,.43,0,1.54,1.54,0,0,1,.34.08,1,1,0,0,1,.41.3A.85.85,0,0,1,56.93,89.72Zm-1.43.49.33,0a1,1,0,0,0,.22,0,.42.42,0,0,0,.24-.18.53.53,0,0,0,0-.47.36.36,0,0,0-.17-.15,1,1,0,0,0-.2,0l-.3,0h-.4v.94Z"/><path class="cls-4" d="M61.49,90.33a1.91,1.91,0,0,1-.1.64,1.46,1.46,0,0,1-.29.5,1.33,1.33,0,0,1-.47.33,1.73,1.73,0,0,1-.63.11,1.81,1.81,0,0,1-.63-.11,1.29,1.29,0,0,1-.75-.83,1.91,1.91,0,0,1-.1-.64,1.87,1.87,0,0,1,.1-.64,1.29,1.29,0,0,1,.75-.83,1.81,1.81,0,0,1,.63-.11,1.73,1.73,0,0,1,.63.11,1.33,1.33,0,0,1,.47.33,1.46,1.46,0,0,1,.29.5A1.87,1.87,0,0,1,61.49,90.33Zm-.58,0a1.45,1.45,0,0,0-.07-.49.85.85,0,0,0-.19-.35.69.69,0,0,0-.28-.2.9.9,0,0,0-.37-.07.86.86,0,0,0-.36.07.72.72,0,0,0-.29.2,1.17,1.17,0,0,0-.19.35,1.75,1.75,0,0,0-.07.49,1.81,1.81,0,0,0,.07.49,1,1,0,0,0,.19.34.84.84,0,0,0,.65.28.9.9,0,0,0,.37-.07.83.83,0,0,0,.28-.21.75.75,0,0,0,.19-.34A1.49,1.49,0,0,0,60.91,90.33Z"/><path class="cls-4" d="M64.7,91c.07-.24.15-.5.25-.78l.53-1.46h.78v3H65.7V90.31c0-.23,0-.49,0-.79h0c0,.09-.06.18-.09.29s-.07.22-.11.32l-.63,1.72h-.36l-.63-1.72a3,3,0,0,1-.11-.32,2.33,2.33,0,0,1-.09-.29h0c0,.28,0,.54,0,.79v1.54h-.56v-3h.78l.53,1.46c.09.24.17.5.25.78Z"/><path class="cls-4" d="M71,91.85h-.55V89.27h-1V88.8H72v.47H71Z"/><path class="cls-4" d="M74,90.06h1.41V88.8H76v3h-.56V90.53H74v1.32h-.56v-3H74Z"/><path class="cls-4" d="M78.32,91.39h1.5v.46H77.76v-3h2v.47H78.32v.79h1.22v.47H78.32Z"/><path class="cls-4" d="M84,90.06h1.41V88.8H86v3h-.56V90.53H84v1.32h-.56v-3H84Z"/><path class="cls-4" d="M88.35,91.39h1.5v.46H87.79v-3h2v.47H88.35v.79h1.22v.47H88.35Z"/><path class="cls-4" d="M93.24,91.08H92.09l-.3.77H91.2l1.21-3h.51l1.21,3h-.59Zm-.58-1.54c-.1.32-.2.58-.28.8l-.11.27h.79l-.1-.27c-.08-.22-.18-.48-.29-.8Z"/><path class="cls-4" d="M97.87,89.72a.83.83,0,0,1-.17.54,1,1,0,0,1-.55.33h0l.91,1.25h-.67l-.83-1.18h-.39v1.18h-.55v-3h.92a2.81,2.81,0,0,1,.43,0,1.31,1.31,0,0,1,.34.08,1,1,0,0,1,.42.3A.85.85,0,0,1,97.87,89.72Zm-1.42.49.33,0,.22,0a.39.39,0,0,0,.23-.18.43.43,0,0,0,.07-.25.51.51,0,0,0,0-.22.39.39,0,0,0-.18-.15.83.83,0,0,0-.2,0l-.3,0h-.4v.94Z"/><path class="cls-4" d="M100.85,91.85h-.56V89.27h-1V88.8h2.53v.47h-1Z"/></svg>